<?xml version="1.0" encoding="UTF-8" standalone="no"?>
<!-- Created with Inkscape (http://www.inkscape.org/) -->

<svg
   xmlns:dc="http://purl.org/dc/elements/1.1/"
   xmlns:cc="http://creativecommons.org/ns#"
   xmlns:rdf="http://www.w3.org/1999/02/22-rdf-syntax-ns#"
   xmlns:svg="http://www.w3.org/2000/svg"
   xmlns="http://www.w3.org/2000/svg"
   xmlns:sodipodi="http://sodipodi.sourceforge.net/DTD/sodipodi-0.dtd"
   xmlns:inkscape="http://www.inkscape.org/namespaces/inkscape"
   width="165.62917mm"
   height="147.10834mm"
   viewBox="0 0 165.62917 147.10834"
   version="1.1"
   id="svg19260"
   inkscape:version="0.92.4 (5da689c313, 2019-01-14)"
   sodipodi:docname="pastronglanguage.svg"
   inkscape:export-filename="C:\Users\tjdru\OneDrive\Pictures\Logos\Music\pastronglanguage.png"
   inkscape:export-xdpi="153.35463"
   inkscape:export-ydpi="153.35463">
  <defs
     id="defs19254" />
  <sodipodi:namedview
     id="base"
     pagecolor="#ffffff"
     bordercolor="#666666"
     borderopacity="1.0"
     inkscape:pageopacity="0.0"
     inkscape:pageshadow="2"
     inkscape:zoom="0.5"
     inkscape:cx="585.73731"
     inkscape:cy="237.68662"
     inkscape:document-units="mm"
     inkscape:current-layer="layer18"
     showgrid="false"
     inkscape:window-width="1366"
     inkscape:window-height="705"
     inkscape:window-x="-8"
     inkscape:window-y="-8"
     inkscape:window-maximized="1"
     inkscape:snap-global="true" />
  <metadata
     id="metadata19257">
    <rdf:RDF>
      <cc:Work
         rdf:about="">
        <dc:format>image/svg+xml</dc:format>
        <dc:type
           rdf:resource="http://purl.org/dc/dcmitype/StillImage" />
        <dc:title />
      </cc:Work>
    </rdf:RDF>
  </metadata>
  <g
     inkscape:groupmode="layer"
     id="layer18"
     inkscape:label="Layer 2"
     style="display:inline;opacity:1"
     transform="translate(-23.018751,-77.169044)">
    <g
       id="g183">
      <path
         inkscape:connector-curvature="0"
         id="rect19274"
         d="M 23.018751,77.169044 H 188.64792 V 224.27738 H 23.018751 Z"
         style="opacity:1;fill:#ffffff;fill-opacity:1;stroke:none;stroke-width:1.66699994;stroke-linecap:butt;stroke-linejoin:miter;stroke-miterlimit:4;stroke-dasharray:none;stroke-opacity:1;paint-order:markers stroke fill" />
      <g
         id="g19252"
         style="opacity:1"
         transform="matrix(0.88153346,0,0,0.88153346,16.042113,9.2226589)">
        <path
           style="opacity:1;fill:#000000;fill-opacity:1;stroke:none;stroke-width:5.24790001;stroke-linecap:round;stroke-linejoin:round;stroke-miterlimit:4;stroke-dasharray:none;stroke-opacity:1;paint-order:stroke markers fill"
           d="M 13.380355,81.838577 H 190.539 V 193.90548 H 13.380355 Z"
           id="rect54" />
        <path
           style="opacity:1;fill:#ffffff;fill-opacity:1;stroke:none;stroke-width:4.11533928;stroke-linecap:round;stroke-linejoin:round;stroke-miterlimit:4;stroke-dasharray:none;stroke-opacity:1;paint-order:stroke markers fill"
           d="M 13.380356,112.71942 H 190.539 v 46.83156 H 13.380356 Z"
           id="rect56" />
        <path
           style="font-style:normal;font-variant:normal;font-weight:bold;font-stretch:normal;font-size:41.03115463px;line-height:0.25;font-family:'Garage Gothic';-inkscape-font-specification:'Garage Gothic Bold';text-align:start;letter-spacing:0px;word-spacing:0px;text-anchor:start;fill:#000000;fill-opacity:1;stroke:none;stroke-width:3.70787406"
           d="m 173.091,140.86499 c 0,4.74069 -0.0459,8.0432 -0.0459,12.35777 0,0.63919 1.69776,0.58592 2.43193,0.58592 0.59651,0 2.5237,0.0533 2.5237,-0.42613 0,-4.47436 0,-8.14973 0,-12.67736 0,-0.95879 0.18354,-2.34372 0.2753,-2.82311 0.13766,-0.85226 0.27532,-2.02412 0.50475,-3.14271 1.2848,-6.28542 2.15662,-11.13265 3.30376,-17.41806 0.13765,-0.69246 -1.00948,-0.74573 -2.24839,-0.74573 -1.19302,0 -2.47782,0.1598 -2.56959,0.85226 -0.55063,4.79396 -0.87182,8.30954 -1.46833,13.05023 0,0.1598 -0.0459,0.53266 -0.22944,0.53266 -0.18354,0 -0.2753,-0.3196 -0.2753,-0.47939 -0.50474,-4.31457 -1.00948,-8.46934 -1.56011,-13.1035 -0.0919,-0.79899 -1.37657,-0.85226 -2.79902,-0.85226 -0.78004,0 -2.20251,0.0533 -2.06485,0.74573 1.14713,6.23215 2.20251,11.50551 3.44142,17.73766 0.22943,1.17185 0.55063,2.50351 0.6424,3.19597 0.0919,0.58593 0.13765,1.65126 0.13765,2.61005 z"
           id="path19146"
           inkscape:connector-curvature="0" />
        <path
           inkscape:connector-curvature="0"
           style="font-style:normal;font-variant:normal;font-weight:bold;font-stretch:normal;font-size:41.03115463px;line-height:0.25;font-family:'Garage Gothic';-inkscape-font-specification:'Garage Gothic Bold';text-align:start;letter-spacing:0px;word-spacing:0px;text-anchor:start;fill:#000000;fill-opacity:1;stroke:none;stroke-width:14.01401234"
           d="m 559.41406,440.35742 c -0.99753,0.0236 -1.71685,0.2434 -2.36718,1.25 -0.52029,1.0066 -0.69336,3.01996 -0.69336,5.0332 v 130.25391 c 0,4.42904 1.38766,4.42969 8.49804,4.42969 8.6713,0 10.0586,8.5e-4 10.0586,-3.82422 v -55.96875 c 0,-2.81851 0.69378,-2.61719 6.76367,-2.61719 4.33561,0 6.41797,5.63735 6.41797,12.6836 v 46.30468 c 0,3.62378 0.69313,3.42188 9.01758,3.42188 8.32437,0 9.5371,4.4e-4 9.5371,-3.2207 v -50.73438 c 0,-5.63698 -0.86649,-9.05787 -3.12109,-12.68164 -3.29503,-5.03305 -8.84375,-5.43688 -8.84375,-6.24219 0,-0.60397 5.37638,-1.81041 8.49805,-7.24609 2.25449,-3.62377 2.94726,-7.45075 2.94726,-13.28906 v -17.11133 c 0,-8.45552 -1.90659,-16.50756 -7.10937,-22.14453 -5.20271,-5.83831 -12.83371,-8.25586 -20.29102,-8.25586 h -17.16992 c -0.84545,0 -1.54406,-0.0552 -2.14258,-0.041 z m 19.48438,21.17969 c 3.98872,0 5.03015,0.80544 6.24414,2.41601 2.25449,3.01981 2.42773,6.84648 2.42773,11.07422 v 13.68946 c 0,2.01324 -0.17321,5.03305 -2.42773,7.85156 -1.90768,2.41584 -4.68335,3.01953 -6.24414,3.01953 -1.38743,0 -2.42744,0.20174 -3.1211,-0.40234 -0.86713,-0.80527 -0.86718,-2.21548 -0.86718,-4.02735 v -29.99609 c 0,-1.0066 0.17475,-1.81188 0.52148,-2.61719 0.69373,-1.0066 1.90593,-1.00781 3.4668,-1.00781 z"
           transform="scale(0.26458333)"
           id="path19144" />
        <path
           inkscape:connector-curvature="0"
           style="font-style:normal;font-variant:normal;font-weight:bold;font-stretch:normal;font-size:41.03115463px;line-height:0.25;font-family:'Garage Gothic';-inkscape-font-specification:'Garage Gothic Bold';text-align:start;letter-spacing:0px;word-spacing:0px;text-anchor:start;fill:#000000;fill-opacity:1;stroke:none;stroke-width:14.01401234"
           d="m 495.20898,440.39844 c -14.39436,0 -25.14648,11.27409 -25.14648,28.78906 v 83.14648 c 0,16.50838 9.19132,28.99024 25.14648,28.99024 16.82227,0 25.32032,-12.07923 25.32032,-28.99024 V 469.1875 c 0,-17.51497 -10.4057,-28.78906 -25.32032,-28.78906 z m 0,20.73633 c 5.02931,0 6.58985,6.4431 6.58985,12.08007 v 74.68946 c 0,5.63697 -0.51996,12.08007 -6.58985,12.08008 -6.41676,0 -6.58984,-6.44311 -6.58984,-12.08008 v -74.68946 c 0,-5.63697 1.38706,-12.08007 6.58984,-12.08007 z"
           transform="scale(0.26458333)"
           id="path19140" />
        <path
           inkscape:connector-curvature="0"
           style="font-style:normal;font-variant:normal;font-weight:bold;font-stretch:normal;font-size:41.03115463px;line-height:0.25;font-family:'Garage Gothic';-inkscape-font-specification:'Garage Gothic Bold';text-align:start;letter-spacing:0px;word-spacing:0px;text-anchor:start;fill:#000000;fill-opacity:1;stroke:none;stroke-width:3.70787406"
           d="m 101.97933,125.15141 c 0,7.98993 8.67236,14.43515 8.67236,19.06931 0,0.74573 -0.0459,1.54472 -0.0918,2.45025 -0.0918,0.90553 -0.41297,1.97085 -1.65188,1.97085 -1.37656,0 -1.69776,-1.17186 -1.69776,-3.14271 0,-0.53266 0,-1.54472 0,-2.23718 0,-0.42613 -0.87183,-0.42613 -2.70725,-0.42613 -1.83542,0 -2.24839,0.0533 -2.24839,0.53266 0,0.69246 0,2.39698 0,2.98291 0,4.84723 2.89079,7.45728 6.6534,7.45728 3.30376,0 4.35912,-1.17186 5.91923,-4.4211 0.55063,-1.17186 0.73417,-3.19598 0.73417,-4.79397 0,-8.68239 -8.76413,-12.99696 -8.76413,-19.28237 0,-0.69247 0.0459,-1.33166 0.13765,-2.13065 0.0918,-0.85226 0.73417,-1.70452 1.56011,-1.70452 0.78005,0 1.65188,0.90552 1.65188,2.39698 0,0.47939 0,1.75778 0,2.45025 0,0.37286 0.91771,0.37286 2.66136,0.37286 1.56011,0 2.2025,0.0533 2.2025,-0.3196 0,-0.90553 0,-1.81105 0,-2.61005 0,-3.88843 -2.61547,-7.2442 -6.51574,-7.2442 -3.12021,0 -4.77209,2.23718 -5.3686,3.4623 -0.59651,1.22512 -1.14714,3.67537 -1.14714,5.16683 z"
           id="path19136" />
        <path
           style="font-style:normal;font-variant:normal;font-weight:bold;font-stretch:normal;font-size:41.03115463px;line-height:0.25;font-family:'Garage Gothic';-inkscape-font-specification:'Garage Gothic Bold';text-align:start;letter-spacing:0px;word-spacing:0px;text-anchor:start;fill:#000000;fill-opacity:1;stroke:none;stroke-width:3.70787406"
           d="m 92.926819,152.90312 c 0,-13.52963 0,-26.84619 0,-35.42205 0,-0.85226 -0.137657,-0.90553 -2.569588,-0.90553 -2.156619,0 -2.340161,0.0533 -2.340161,0.85226 0,12.7839 0,22.21202 0,35.58185 0,0.74573 0.09176,0.74573 2.340161,0.74573 2.523703,0 2.569588,-0.0533 2.569588,-0.85226 z"
           id="path19134"
           inkscape:connector-curvature="0" />
        <path
           style="font-style:normal;font-variant:normal;font-weight:bold;font-stretch:normal;font-size:41.03115463px;line-height:0.25;font-family:'Garage Gothic';-inkscape-font-specification:'Garage Gothic Bold';text-align:start;letter-spacing:0px;word-spacing:0px;text-anchor:start;fill:#000000;fill-opacity:1;stroke:none;stroke-width:3.70787406"
           d="m 74.359464,117.48111 c -0.504741,4.90049 -1.193023,16.29947 -1.835421,22.31855 0,0.26633 -0.04588,0.53266 -0.229427,0.53266 -0.137656,0 -0.183542,-0.31959 -0.183542,-0.53266 -0.550627,-5.96582 -1.055366,-16.93866 -1.514222,-22.31855 -0.137656,-0.799 -0.183541,-0.9588 -2.615473,-0.9588 -2.294275,0 -2.615473,0 -2.523702,0.799 1.560107,12.9437 3.1661,26.95272 4.083809,35.58185 0.09177,0.90552 0.550627,0.90552 2.661359,0.90552 1.973076,0 2.431932,0 2.523703,-0.79899 1.055366,-9.48139 2.982557,-22.63815 4.58855,-35.63511 0.09177,-0.74573 -0.275312,-0.799 -2.523703,-0.799 -2.202503,0 -2.340161,0 -2.431931,0.90553 z"
           id="path19132"
           inkscape:connector-curvature="0" />
        <path
           inkscape:connector-curvature="0"
           style="font-style:normal;font-variant:normal;font-weight:bold;font-stretch:normal;font-size:41.03115463px;line-height:0.25;font-family:'Garage Gothic';-inkscape-font-specification:'Garage Gothic Bold';text-align:start;letter-spacing:0px;word-spacing:0px;text-anchor:start;fill:#000000;fill-opacity:1;stroke:none;stroke-width:14.01401234"
           d="m 169.38867,440.39062 c -1.34134,0.009 -2.21958,0.15976 -3,1.2168 -0.6937,1.0066 -0.69336,2.81867 -0.69336,5.0332 v 128.44336 c 0,2.01321 -3.4e-4,3.82348 0.69336,4.83008 0.6937,1.61057 2.0814,1.41016 4.33594,1.41016 h 18.03711 c 6.41674,0 14.39374,-2.01267 19.94336,-8.65625 5.89646,-7.04625 7.45703,-14.49643 7.45703,-21.94531 v -79.92383 c 0,-8.65682 -2.08199,-16.70885 -7.11133,-22.14453 -5.37619,-5.83831 -13.00559,-8.25586 -20.46289,-8.25586 h -17.68945 c -0.56364,0 -1.06265,-0.0109 -1.50977,-0.008 z m 20.06641,21.14649 c 3.12166,0 4.33525,0.80544 5.72265,2.41601 2.08111,3.01981 2.25391,6.84648 2.25391,11.07422 v 71.66993 c 0,3.01984 0.17483,6.44275 -1.90625,9.86523 -1.90768,2.81847 -4.51069,3.62305 -6.5918,3.62305 -1.56083,0 -3.468,0.20174 -3.98828,-0.40235 -0.6937,-0.8053 -0.69336,-2.21544 -0.69336,-4.02734 v -90.59375 c 0,-1.2079 -7.4e-4,-2.01309 0.51953,-2.81836 0.52028,-0.8053 1.90879,-0.80664 4.6836,-0.80664 z"
           transform="scale(0.26458333)"
           id="path19130" />
        <path
           style="font-style:normal;font-variant:normal;font-weight:bold;font-stretch:normal;font-size:41.03115463px;line-height:0.25;font-family:'Garage Gothic';-inkscape-font-specification:'Garage Gothic Bold';text-align:start;letter-spacing:0px;word-spacing:0px;text-anchor:start;fill:#000000;fill-opacity:1;stroke:none;stroke-width:3.70787406"
           d="m 27.310351,116.46886 c -1.009478,0 -2.294128,0.0537 -2.3859,0.79943 -1.514221,12.83717 -2.707136,22.15836 -4.404899,36.06085 -0.04589,0.47939 1.560158,0.47956 2.248441,0.47956 1.468336,0 2.477474,0.0532 2.52336,-0.53279 0.229429,-3.08944 0.413019,-5.06001 0.688331,-8.04292 0.04588,-0.53266 0.504836,-0.42633 1.376659,-0.42633 0.734169,0 1.284782,-0.10633 1.330669,0.42633 0.367083,2.92964 0.550688,4.95356 0.917773,7.93647 0.09177,0.74573 0.963756,0.63924 2.294433,0.63924 1.238911,0 2.615131,0.0532 2.52336,-0.53279 -1.83542,-13.90249 -2.844808,-22.21178 -4.634341,-35.84794 -0.09177,-0.90553 -1.330748,-0.95911 -2.477886,-0.95911 z m 0,12.14499 c 0.321198,0 0.412895,1.17183 0.412895,1.43816 0.229428,4.20803 0.367438,6.44526 0.596863,10.38696 0.04588,0.47939 -0.413245,0.37259 -1.009758,0.37259 -0.68828,0 -0.963658,-0.053 -0.917774,-0.42581 0.183544,-3.40904 0.367435,-6.07252 0.596863,-10.22729 0,-0.21306 0.09147,-1.54461 0.320911,-1.54461 z"
           id="path19126"
           inkscape:connector-curvature="0" />
        <path
           style="font-style:normal;font-variant:normal;font-weight:bold;font-stretch:normal;font-size:21.64652824px;line-height:0.25;font-family:'Garage Gothic';-inkscape-font-specification:'Garage Gothic Bold';text-align:start;letter-spacing:0px;word-spacing:0px;text-anchor:start;fill:#ffffff;fill-opacity:1;stroke:none;stroke-width:1.8285799"
           d="m 179.54864,170.36988 c 0,5.7448 0,8.72165 0,14.44034 0,0.26113 0.20487,0.26113 1.16098,0.26113 1.06991,0 1.32031,-0.0261 1.32031,-0.26113 0,-5.71869 0,-8.66943 0,-14.44034 0,-0.33947 -0.0455,-0.78339 0.15935,-0.96617 0.11383,-0.0522 0.40977,-0.0522 0.66017,-0.0522 0.38699,0 0.70569,0 0.97886,0 0.25041,0 0.27318,-0.13057 0.27318,-1.33175 0,-0.99229 -0.0228,-1.2273 -0.29595,-1.2273 -1.43414,0 -4.57561,0 -6.00974,0 -0.27318,0 -0.31871,0.18279 -0.31871,1.27953 0,1.09673 0.0683,1.27952 0.40976,1.27952 0.20488,0 0.52358,0 0.84228,0 0.2504,0 0.54633,0 0.66016,0.0522 0.20488,0.18278 0.15935,0.6267 0.15935,0.96617 z"
           id="path19210"
           inkscape:connector-curvature="0" />
        <path
           style="font-style:normal;font-variant:normal;font-weight:bold;font-stretch:normal;font-size:21.64652824px;line-height:0.25;font-family:'Garage Gothic';-inkscape-font-specification:'Garage Gothic Bold';text-align:start;letter-spacing:0px;word-spacing:0px;text-anchor:start;fill:#ffffff;fill-opacity:1;stroke:none;stroke-width:1.8285799"
           d="m 169.10899,176.66304 c 0.79674,3.29021 1.06991,4.67419 1.82113,7.70326 0.15935,0.65282 0.40977,0.70505 1.00163,0.70505 1.16098,0 1.13821,-0.0784 1.13821,-0.75727 0,-6.52819 0,-12.84747 0,-17.07773 0,-0.41781 -0.0227,-0.44392 -1.18374,-0.44392 -1.13821,0 -1.20649,0.0522 -1.20649,0.47003 0,3.00296 0,5.19643 0,7.96438 0,0.28725 0,0.78339 -0.15937,0.78339 -0.13658,0 -0.22763,-0.41781 -0.27317,-0.67894 -0.70568,-2.76794 -1.36585,-5.56201 -1.84389,-7.70325 -0.18212,-0.73116 -0.29594,-0.83561 -1.2748,-0.83561 -1.00163,0 -1.04715,0 -1.04715,0.36558 0,6.24094 0,10.94124 0,17.46942 0,0.39169 0,0.44392 1.1382,0.44392 1.18375,0 1.25203,-0.0522 1.25203,-0.47003 0,-3.57745 0,-5.19644 0,-8.59109 0,-0.33947 0,-0.88784 0.15936,-0.88784 0.15935,0 0.34146,0.96617 0.47805,1.54065 z"
           id="path19208"
           inkscape:connector-curvature="0" />
        <path
           style="font-style:normal;font-variant:normal;font-weight:bold;font-stretch:normal;font-size:21.64652824px;line-height:0.25;font-family:'Garage Gothic';-inkscape-font-specification:'Garage Gothic Bold';text-align:start;letter-spacing:0px;word-spacing:0px;text-anchor:start;fill:#ffffff;fill-opacity:1;stroke:none;stroke-width:1.8285799"
           d="m 155.82003,184.96689 c 0.15935,0.15668 0.54634,0.10446 0.91057,0.10446 0.97885,0 3.39187,0 4.37073,0 0.2504,0 0.27316,-0.10446 0.27316,-1.30564 0,-1.14896 -0.0227,-1.25341 -0.29592,-1.25341 -0.61464,0 -1.54798,0 -2.16261,0 -0.2504,0 -0.5691,-0.0261 -0.68293,-0.10445 -0.11381,-0.0783 -0.11381,-0.57448 -0.11381,-0.91395 0,-2.08902 0,-1.80178 0,-3.8908 0,-0.33946 -0.0455,-0.60059 0.15934,-0.75727 0.0911,-0.0522 0.34146,-0.0783 0.56911,-0.0783 0.40977,0 0.84228,0 1.02439,0 0.29594,0 0.29594,-0.15667 0.29594,-1.25341 0,-1.14896 -0.0227,-1.30563 -0.29594,-1.30563 -0.20488,0 -0.70569,0 -1.09268,0 -0.18211,0 -0.34147,0.0261 -0.50082,-0.10446 -0.18211,-0.15668 -0.13657,-0.44392 -0.13657,-0.67893 0,-1.74955 0,-1.69733 0,-3.44688 0,-0.33947 0,-0.31335 0.11381,-0.49614 0.0683,-0.10446 0.34147,-0.13057 0.52358,-0.13057 0.43252,0 1.66178,0 2.27642,0 0.29593,0 0.29593,-0.15667 0.29593,-1.33175 0,-1.01839 0,-1.22729 -0.27316,-1.22729 -1.25204,0 -3.46016,0 -4.7122,0 -0.22765,0 -0.38699,0 -0.52357,0.2089 -0.13659,0.2089 -0.15936,0.23501 -0.15936,0.57448 0,6.26705 0,10.23619 0,16.50324 0,0.31336 -0.0455,0.70505 0.13659,0.88784 z"
           id="path19206"
           inkscape:connector-curvature="0" />
        <path
           style="font-style:normal;font-variant:normal;font-weight:bold;font-stretch:normal;font-size:21.64652824px;line-height:0.25;font-family:'Garage Gothic';-inkscape-font-specification:'Garage Gothic Bold';text-align:start;letter-spacing:0px;word-spacing:0px;text-anchor:start;fill:#ffffff;fill-opacity:1;stroke:none;stroke-width:1.8285799"
           d="m 146.5689,170.36988 c 0,5.7448 0,8.72165 0,14.44034 0,0.26113 0.20487,0.26113 1.16096,0.26113 1.06993,0 1.32033,-0.0261 1.32033,-0.26113 0,-5.71869 0,-8.66943 0,-14.44034 0,-0.33947 -0.0455,-0.78339 0.15935,-0.96617 0.11383,-0.0522 0.40975,-0.0522 0.66016,-0.0522 0.38699,0 0.7057,0 0.97886,0 0.25042,0 0.27318,-0.13057 0.27318,-1.33175 0,-0.99229 -0.0227,-1.2273 -0.29594,-1.2273 -1.43414,0 -4.57561,0 -6.00976,0 -0.27317,0 -0.3187,0.18279 -0.3187,1.27953 0,1.09673 0.0683,1.27952 0.40976,1.27952 0.20488,0 0.52358,0 0.84227,0 0.25041,0 0.54635,0 0.66017,0.0522 0.20487,0.18278 0.15936,0.6267 0.15936,0.96617 z"
           id="path19204"
           inkscape:connector-curvature="0" />
        <path
           style="font-style:normal;font-variant:normal;font-weight:bold;font-stretch:normal;font-size:21.64652824px;line-height:0.25;font-family:'Garage Gothic';-inkscape-font-specification:'Garage Gothic Bold';text-align:start;letter-spacing:0px;word-spacing:0px;text-anchor:start;fill:#ffffff;fill-opacity:1;stroke:none;stroke-width:1.8285799"
           d="m 135.84184,176.66304 c 0.79675,3.29021 1.06991,4.67419 1.82114,7.70326 0.15934,0.65282 0.40976,0.70505 1.00162,0.70505 1.16098,0 1.13821,-0.0784 1.13821,-0.75727 0,-6.52819 0,-12.84747 0,-17.07773 0,-0.41781 -0.0228,-0.44392 -1.18374,-0.44392 -1.13821,0 -1.20649,0.0522 -1.20649,0.47003 0,3.00296 0,5.19643 0,7.96438 0,0.28725 0,0.78339 -0.15937,0.78339 -0.13658,0 -0.22763,-0.41781 -0.27316,-0.67894 -0.70569,-2.76794 -1.36585,-5.56201 -1.84391,-7.70325 -0.18212,-0.73116 -0.29593,-0.83561 -1.27479,-0.83561 -1.00163,0 -1.04715,0 -1.04715,0.36558 0,6.24094 0,10.94124 0,17.46942 0,0.39169 0,0.44392 1.13821,0.44392 1.18373,0 1.25202,-0.0522 1.25202,-0.47003 0,-3.57745 0,-5.19644 0,-8.59109 0,-0.33947 0,-0.88784 0.15936,-0.88784 0.15935,0 0.34146,0.96617 0.47805,1.54065 z"
           id="path19202"
           inkscape:connector-curvature="0" />
        <path
           style="font-style:normal;font-variant:normal;font-weight:bold;font-stretch:normal;font-size:21.64652824px;line-height:0.25;font-family:'Garage Gothic';-inkscape-font-specification:'Garage Gothic Bold';text-align:start;letter-spacing:0px;word-spacing:0px;text-anchor:start;fill:#ffffff;fill-opacity:1;stroke:none;stroke-width:1.8285799"
           d="m 124.50224,166.79265 c -1.88943,0 -3.30058,1.46233 -3.30058,3.73414 v 10.78436 c 0,2.14125 1.20627,3.75997 3.30058,3.75997 2.20814,0 3.32382,-1.5665 3.32382,-3.75997 v -10.78436 c 0,-2.27181 -1.3661,-3.73414 -3.32382,-3.73414 z m 0,2.68925 c 0.66015,0 0.86506,0.83566 0.86506,1.56682 v 9.68779 c 0,0.73116 -0.0683,1.56682 -0.86506,1.56682 -0.84227,0 -0.86455,-0.83566 -0.86455,-1.56682 v -9.68779 c 0,-0.73116 0.18162,-1.56682 0.86455,-1.56682 z"
           id="path19200"
           inkscape:connector-curvature="0" />
        <path
           style="font-style:normal;font-variant:normal;font-weight:bold;font-stretch:normal;font-size:21.64652824px;line-height:0.25;font-family:'Garage Gothic';-inkscape-font-specification:'Garage Gothic Bold';text-align:start;letter-spacing:0px;word-spacing:0px;text-anchor:start;fill:#ffffff;fill-opacity:1;stroke:none;stroke-width:1.8285799"
           d="m 114.39728,171.93664 c 0,0.33947 0.38699,0.28724 1.13821,0.28724 1.04715,0 1.22927,-0.0783 1.22927,-0.33947 0,-0.28724 0,-1.09673 0,-1.41008 0,-1.90623 -1.06992,-3.6819 -3.20976,-3.6819 -2.04878,0 -3.30081,1.67122 -3.30081,3.6819 0,3.91691 0,7.02432 0,10.94123 0,1.98457 1.25203,3.65579 3.30081,3.65579 2.11707,0 3.20976,-1.48843 3.20976,-3.65579 0,-0.33946 0,-0.96617 0,-1.35786 0,-0.47003 -0.20488,-0.49614 -1.16098,-0.49614 -1.00163,0 -1.2065,-0.0261 -1.2065,0.33946 0,0.6006 0,0.99229 0,1.35787 0,0.4178 -0.18212,1.04451 -0.84228,1.04451 -0.70569,0 -0.86504,-0.75727 -0.86504,-1.48843 0,-3.36854 0,-6.50207 0,-9.8445 0,-0.67893 0.15935,-1.48843 0.86504,-1.48843 0.59187,0 0.84228,0.73116 0.84228,1.09674 0,0.26113 0,0.99228 0,1.35786 z"
           id="path19196"
           inkscape:connector-curvature="0" />
        <path
           style="font-style:normal;font-variant:normal;font-weight:bold;font-stretch:normal;font-size:21.64652824px;line-height:0.25;font-family:'Garage Gothic';-inkscape-font-specification:'Garage Gothic Bold';text-align:start;letter-spacing:0px;word-spacing:0px;text-anchor:start;fill:#ffffff;fill-opacity:1;stroke:none;stroke-width:1.8285799"
           d="m 93.199156,170.36988 c 0,5.7448 0,8.72165 0,14.44034 0,0.26113 0.204878,0.26113 1.160975,0.26113 1.069919,0 1.320326,-0.0261 1.320326,-0.26113 0,-5.71869 0,-8.66943 0,-14.44034 0,-0.33947 -0.04553,-0.78339 0.159349,-0.96617 0.113821,-0.0522 0.409756,-0.0522 0.660163,-0.0522 0.386992,0 0.705691,0 0.978861,0 0.250407,0 0.273171,-0.13057 0.273171,-1.33175 0,-0.99229 -0.02277,-1.2273 -0.295935,-1.2273 -1.434146,0 -4.575609,0 -6.009757,0 -0.273171,0 -0.318699,0.18279 -0.318699,1.27953 0,1.09673 0.0683,1.27952 0.409757,1.27952 0.204877,0 0.523577,0 0.842275,0 0.250408,0 0.546343,0 0.660164,0.0522 0.204878,0.18278 0.15935,0.6267 0.15935,0.96617 z"
           id="path19194"
           inkscape:connector-curvature="0" />
        <path
           style="font-style:normal;font-variant:normal;font-weight:bold;font-stretch:normal;font-size:21.64652824px;line-height:0.25;font-family:'Garage Gothic';-inkscape-font-specification:'Garage Gothic Bold';text-align:start;letter-spacing:0px;word-spacing:0px;text-anchor:start;fill:#ffffff;fill-opacity:1;stroke:none;stroke-width:1.8285799"
           d="m 86.686491,184.62743 c 0,-6.63264 0,-13.16082 0,-17.36497 0,-0.4178 -0.0683,-0.44392 -1.274796,-0.44392 -1.069919,0 -1.160976,0.0261 -1.160976,0.41781 0,6.26705 0,10.88901 0,17.44331 0,0.36557 0.04553,0.36557 1.160976,0.36557 1.252032,0 1.274796,-0.0261 1.274796,-0.4178 z"
           id="path19192"
           inkscape:connector-curvature="0" />
        <path
           style="font-style:normal;font-variant:normal;font-weight:bold;font-stretch:normal;font-size:21.64652824px;line-height:0.25;font-family:'Garage Gothic';-inkscape-font-specification:'Garage Gothic Bold';text-align:start;letter-spacing:0px;word-spacing:0px;text-anchor:start;fill:#ffffff;fill-opacity:1;stroke:none;stroke-width:1.8285799"
           d="m 77.396252,171.93664 c 0,0.33947 0.386992,0.28724 1.138211,0.28724 1.047155,0 1.22927,-0.0783 1.22927,-0.33947 0,-0.28724 0,-1.09673 0,-1.41008 0,-1.90623 -1.06992,-3.6819 -3.209758,-3.6819 -2.04878,0 -3.300813,1.67122 -3.300813,3.6819 0,3.91691 0,7.02432 0,10.94123 0,1.98457 1.252033,3.65579 3.300813,3.65579 2.117073,0 3.209758,-1.48843 3.209758,-3.65579 0,-0.33946 0,-0.96617 0,-1.35786 0,-0.47003 -0.204878,-0.49614 -1.160977,-0.49614 -1.001627,0 -1.206504,-0.0261 -1.206504,0.33946 0,0.6006 0,0.99229 0,1.35787 0,0.4178 -0.182114,1.04451 -0.842277,1.04451 -0.70569,0 -0.86504,-0.75727 -0.86504,-1.48843 0,-3.36854 0,-6.50207 0,-9.8445 0,-0.67893 0.15935,-1.48843 0.86504,-1.48843 0.591871,0 0.842277,0.73116 0.842277,1.09674 0,0.26113 0,0.99228 0,1.35786 z"
           id="path19190"
           inkscape:connector-curvature="0" />
        <path
           style="font-style:normal;font-variant:normal;font-weight:bold;font-stretch:normal;font-size:21.64652824px;line-height:0.25;font-family:'Garage Gothic';-inkscape-font-specification:'Garage Gothic Bold';text-align:start;letter-spacing:0px;word-spacing:0px;text-anchor:start;fill:#ffffff;fill-opacity:1;stroke:none;stroke-width:1.8285799"
           d="m 68.195357,184.62743 c 0,-6.63264 0,-13.16082 0,-17.36497 0,-0.4178 -0.0683,-0.44392 -1.274796,-0.44392 -1.06992,0 -1.160977,0.0261 -1.160977,0.41781 0,6.26705 0,10.88901 0,17.44331 0,0.36557 0.04553,0.36557 1.160977,0.36557 1.252032,0 1.274796,-0.0261 1.274796,-0.4178 z"
           id="path19188"
           inkscape:connector-curvature="0" />
        <path
           style="font-style:normal;font-variant:normal;font-weight:bold;font-stretch:normal;font-size:21.64652824px;line-height:0.25;font-family:'Garage Gothic';-inkscape-font-specification:'Garage Gothic Bold';text-align:start;letter-spacing:0px;word-spacing:0px;text-anchor:start;fill:#ffffff;fill-opacity:1;stroke:none;stroke-width:1.8285799"
           d="m 56.560139,166.79243 c -1.024389,0 -1.138211,0.0522 -1.138211,0.41781 0,6.26705 0,10.52343 0,16.79048 0,0.33947 -0.02277,0.73116 0.113822,0.91395 0.11382,0.15668 0.43252,0.15668 0.751219,0.15668 0.637398,0 3.27805,0 4.370733,0 0.273171,0 0.295934,-0.0784 0.295934,-1.33175 0,-1.09674 -0.02277,-1.2273 -0.318698,-1.2273 -0.500814,0 -1.525203,0 -2.026017,0 -0.227642,0 -0.500813,-0.0261 -0.614634,-0.10446 -0.159349,-0.13056 -0.136585,-0.57448 -0.136585,-0.91394 0,-3.8908 0,-8.66943 0,-14.25756 0,-0.4178 -0.136586,-0.44391 -1.297563,-0.44391 z"
           id="path19186"
           inkscape:connector-curvature="0" />
        <path
           style="font-style:normal;font-variant:normal;font-weight:bold;font-stretch:normal;font-size:21.64652824px;line-height:0.25;font-family:'Garage Gothic';-inkscape-font-specification:'Garage Gothic Bold';text-align:start;letter-spacing:0px;word-spacing:0px;text-anchor:start;fill:#ffffff;fill-opacity:1;stroke:none;stroke-width:1.8285799"
           d="m 44.668441,166.7911 c -0.171799,0.001 -0.296007,0.0211 -0.381373,0.15813 -0.09107,0.13056 -0.113688,0.33932 -0.113688,0.65268 V 184.497 c 0,0.57448 0.136779,0.57412 1.161169,0.57412 1.047157,0 1.274857,0.0264 1.274857,-0.41754 v -5.69268 c 0,-0.65282 0.182047,-0.80925 0.500745,-0.80925 0.842278,0 1.82126,-0.20908 2.549716,-0.96635 0.865042,-0.91395 1.137915,-1.95865 1.137915,-3.02927 v -3.42046 c 0,-1.30564 -0.341194,-2.29813 -1.115177,-3.02928 -0.682926,-0.65282 -1.59367,-0.91364 -2.504241,-0.91364 h -2.321822 c -0.06829,0 -0.130834,-0.002 -0.188101,-0.002 z m 2.623611,2.74299 c 0.364228,0 0.569262,0.10478 0.751377,0.31367 0.273169,0.39169 0.296106,0.88772 0.296106,1.43609 v 2.50682 c 0,0.49616 0.02257,0.8878 -0.27337,1.33171 -0.250404,0.33947 -0.56918,0.41806 -0.819587,0.41806 -0.227642,0 -0.386926,-2.6e-4 -0.500745,-0.0263 -0.15935,-0.0783 -0.136427,-0.28717 -0.136427,-0.54829 v -4.96146 c 0,-0.15668 -8.7e-5,-0.2609 0.06822,-0.36535 0.09107,-0.10446 0.34126,-0.1049 0.614431,-0.1049 z"
           id="path19184"
           inkscape:connector-curvature="0" />
        <path
           style="font-style:normal;font-variant:normal;font-weight:bold;font-stretch:normal;font-size:21.64652824px;line-height:0.25;font-family:'Garage Gothic';-inkscape-font-specification:'Garage Gothic Bold';text-align:start;letter-spacing:0px;word-spacing:0px;text-anchor:start;fill:#ffffff;fill-opacity:1;stroke:none;stroke-width:1.8285799"
           d="m 34.008369,166.79265 c -1.001625,0 -1.297672,0.0259 -1.229381,0.36535 0.660162,2.71573 1.229207,5.1443 1.821077,7.8078 0.0683,0.28724 0.136943,0.49621 0.136943,0.73122 0,0.2089 -0.02315,0.36515 -0.114205,0.67851 -0.682926,2.92462 -1.251892,5.53597 -1.889291,8.25169 -0.09107,0.44392 0.159517,0.4439 1.183907,0.4439 1.092681,0 1.206566,-0.0261 1.274857,-0.3917 0.273172,-1.33175 0.546418,-2.95066 0.81959,-4.72633 0.02277,-0.2089 0.04532,-0.41755 0.181901,-0.41755 0.09107,0 0.136398,0.28699 0.159162,0.41755 0.273172,1.61899 0.569183,3.47288 0.81959,4.77852 0.09107,0.33947 0.227729,0.33951 1.252119,0.33951 1.06992,0 1.343176,-0.052 1.25212,-0.36535 -0.660162,-2.79406 -1.275094,-5.43169 -1.95802,-8.38243 -0.09107,-0.28724 -0.113689,-0.46961 -0.113689,-0.67851 0,-0.23502 0.09137,-0.392 0.18242,-0.75758 0.569105,-2.63739 1.115491,-5.06599 1.730126,-7.7556 0.09107,-0.31336 -0.09118,-0.339 -1.229384,-0.339 -1.138211,0 -1.183852,-4.7e-4 -1.229381,0.339 -0.227642,1.59287 -0.50102,3.31683 -0.705901,4.62246 -0.02277,0.10446 -0.06809,0.339 -0.181901,0.339 -0.09107,0 -0.136374,-0.18257 -0.181901,-0.36536 -0.20488,-1.17507 -0.45552,-2.82019 -0.683162,-4.56975 -0.0683,-0.36558 -0.159385,-0.36535 -1.297596,-0.36535 z"
           id="path19180"
           inkscape:connector-curvature="0" />
        <path
           style="font-style:normal;font-variant:normal;font-weight:bold;font-stretch:normal;font-size:21.64652824px;line-height:0.25;font-family:'Garage Gothic';-inkscape-font-specification:'Garage Gothic Bold';text-align:start;letter-spacing:0px;word-spacing:0px;text-anchor:start;fill:#ffffff;fill-opacity:1;stroke:none;stroke-width:1.8285799"
           d="m 23.102685,184.96686 c 0.159349,0.15668 0.546341,0.10446 0.910569,0.10446 0.978861,0 3.39187,0 4.370732,0 0.250407,0 0.273171,-0.10446 0.273171,-1.30564 0,-1.14896 -0.02277,-1.25341 -0.295934,-1.25341 -0.614635,0 -1.547968,0 -2.162603,0 -0.250405,0 -0.569105,-0.0261 -0.682926,-0.10445 -0.113821,-0.0783 -0.113821,-0.57448 -0.113821,-0.91395 0,-2.08902 0,-1.80178 0,-3.8908 0,-0.33946 -0.04553,-0.60059 0.15935,-0.75727 0.09107,-0.0522 0.341462,-0.0783 0.569105,-0.0783 0.409756,0 0.842276,0 1.024391,0 0.295934,0 0.295934,-0.15667 0.295934,-1.25341 0,-1.14896 -0.02277,-1.30563 -0.295934,-1.30563 -0.204879,0 -0.705692,0 -1.092684,0 -0.182114,0 -0.341463,0.0261 -0.500812,-0.10446 -0.182115,-0.15668 -0.136587,-0.44392 -0.136587,-0.67893 0,-1.74955 0,-1.69733 0,-3.44688 0,-0.33947 0,-0.31335 0.113822,-0.49614 0.0683,-0.10446 0.341463,-0.13057 0.523577,-0.13057 0.43252,0 1.661789,0 2.276423,0 0.295935,0 0.295935,-0.15667 0.295935,-1.33175 0,-1.01839 0,-1.22729 -0.27317,-1.22729 -1.252034,0 -3.460165,0 -4.712197,0 -0.227642,0 -0.386992,0 -0.523577,0.2089 -0.136585,0.2089 -0.15935,0.23501 -0.15935,0.57448 0,6.26705 0,10.23619 0,16.50324 0,0.31336 -0.04553,0.70505 0.136586,0.88784 z"
           id="path19176"
           inkscape:connector-curvature="0" />
        <path
           style="font-style:normal;font-variant:normal;font-weight:bold;font-stretch:normal;font-size:21.64652824px;line-height:0.25;font-family:'Garage Gothic';-inkscape-font-specification:'Garage Gothic Bold';text-align:start;letter-spacing:0px;word-spacing:0px;text-anchor:start;fill:#ffffff;fill-opacity:1;stroke:none;stroke-width:1.8285799"
           d="m 176.72919,90.404033 c -1.70637,0 -1.70637,0.147293 -1.70637,0.490977 0,5.891724 0,9.86864 0,15.76036 0,0.29459 -0.0487,0.66282 0.14627,0.83466 0.17062,0.1473 0.58503,0.0982 0.97507,0.0982 1.0482,0 4.68033,0 5.72852,0 0.26816,0 0.29253,-0.0245 0.29253,-1.79207 0,-1.59567 -0.0244,-1.64477 -0.3169,-1.64477 -0.65817,0 -1.65763,0 -2.31579,0 -0.26815,0 -0.60942,-0.0246 -0.73131,-0.0982 -0.12188,-0.0737 -0.12188,-0.54007 -0.12188,-0.85921 0,-1.96391 0,-7.19281 0,-12.298971 0,-0.41733 -0.0975,-0.490977 -1.95014,-0.490976 z"
           id="path19174"
           inkscape:connector-curvature="0" />
        <path
           style="font-style:normal;font-variant:normal;font-weight:bold;font-stretch:normal;font-size:21.64652824px;line-height:0.25;font-family:'Garage Gothic';-inkscape-font-specification:'Garage Gothic Bold';text-align:start;letter-spacing:0px;word-spacing:0px;text-anchor:start;fill:#ffffff;fill-opacity:1;stroke:none;stroke-width:1.8285799"
           d="m 157.14611,90.379496 c -0.53628,0 -1.80384,0.02477 -1.8526,0.368453 -0.92631,6.333601 -1.53562,10.162791 -2.58382,16.619141 -0.0244,0.22094 1.38928,0.22117 1.75493,0.22117 0.78006,0 1.6334,0.0245 1.65778,-0.24546 0.12189,-1.42383 0.19479,-2.01318 0.34106,-3.38791 0.0244,-0.24549 0.26807,-0.19637 0.73123,-0.19637 0.39003,0 0.60969,-0.0491 0.63406,0.19637 0.19502,1.35018 0.26802,1.96409 0.46302,3.33882 0.0487,0.34369 0.8532,0.29455 1.56012,0.29455 0.65818,0 1.97473,0.0245 1.92598,-0.24546 -1.14571,-6.4318 -1.80382,-10.236969 -2.85202,-16.521471 -0.0731,-0.417333 -1.17032,-0.441833 -1.77974,-0.441833 z m 0,5.670971 c 0.17064,0 0.24391,0.932489 0.24391,1.055232 0.12189,1.939361 0.19507,2.676165 0.2682,4.149101 0,0.24548 -0.19514,0.17157 -0.5364,0.17157 -0.41442,0 -0.46302,10e-6 -0.46302,-0.19638 0.0731,-1.497479 0.1707,-2.233782 0.2682,-4.001299 0,-0.0982 0.0728,-1.178224 0.21911,-1.178224 z"
           id="path19172"
           inkscape:connector-curvature="0" />
        <path
           style="font-style:normal;font-variant:normal;font-weight:bold;font-stretch:normal;font-size:21.64652824px;line-height:0.25;font-family:'Garage Gothic';-inkscape-font-specification:'Garage Gothic Bold';text-align:start;letter-spacing:0px;word-spacing:0px;text-anchor:start;fill:#ffffff;fill-opacity:1;stroke:none;stroke-width:1.8285799"
           d="m 133.87019,94.798277 c 0,5.400743 0,7.168263 0,12.544463 0,0.24549 0.14625,0.24549 1.73075,0.24549 1.80388,0 1.95014,-0.0245 1.95014,-0.24549 0,-5.3762 0,-7.11917 0,-12.544463 0,-0.319136 -0.0487,-0.736466 0.17063,-0.908307 0.12189,-0.0491 0.56067,-0.0491 0.92631,-0.0491 0.41442,0 0.7557,0 1.0482,0 0.26815,0 0.29253,-0.147293 0.29253,-1.865713 0,-1.399284 -0.0244,-1.571126 -0.31689,-1.571126 -1.53573,0 -6.33796,0 -7.8737,0 -0.29251,0 -0.34127,0.147293 -0.34127,1.693871 0,1.522028 0.0731,1.742968 0.43878,1.742968 0.21939,0 0.56067,0 0.90194,0 0.34128,0 0.78006,0 0.90194,0.0491 0.21939,0.171841 0.17064,0.589171 0.17064,0.908307 z"
           id="path19168"
           inkscape:connector-curvature="0" />
        <path
           style="font-style:normal;font-variant:normal;font-weight:bold;font-stretch:normal;font-size:21.64652824px;line-height:0.25;font-family:'Garage Gothic';-inkscape-font-specification:'Garage Gothic Bold';text-align:start;letter-spacing:0px;word-spacing:0px;text-anchor:start;fill:#ffffff;fill-opacity:1;stroke:none;stroke-width:1.8285799"
           d="m 112.8168,100.66545 c 0.92632,3.14225 1.09696,3.97692 1.9989,6.55454 0.14626,0.41734 0.36565,0.36824 1.26759,0.36824 1.87701,0 1.80388,-0.0245 1.80388,-0.41733 0,-6.35816 0,-14.262884 0,-16.27589 0,-0.441879 0.0975,-0.466428 -1.80388,-0.466428 -1.73075,0 -1.75513,0 -1.75513,0.441879 0,2.35669 0,3.927816 0,6.063567 0,0.368232 0.0244,1.006502 -0.19501,1.006502 -0.17064,0 -0.26815,-0.417331 -0.34128,-0.66282 -0.7313,-2.184848 -1.68199,-5.425295 -1.95014,-6.3827 -0.12188,-0.441879 -0.21939,-0.466428 -1.60886,-0.466428 -1.73075,0 -1.65762,0 -1.65762,0.441879 0,5.891724 0,10.187769 0,16.349529 0,0.34369 -0.0975,0.36824 1.65762,0.36824 1.87701,0 1.90138,-0.0245 1.90138,-0.41733 0,-3.1668 0,-3.38775 0,-6.35816 0,-0.49097 -0.0487,-1.227438 0.17064,-1.227438 0.19501,0 0.39003,0.662818 0.51191,1.080148 z"
           id="path19166"
           inkscape:connector-curvature="0" />
        <path
           inkscape:connector-curvature="0"
           style="font-style:normal;font-variant:normal;font-weight:bold;font-stretch:normal;font-size:21.64652824px;line-height:0.25;font-family:'Garage Gothic';-inkscape-font-specification:'Garage Gothic Bold';text-align:start;letter-spacing:0px;word-spacing:0px;text-anchor:start;fill:#ffffff;fill-opacity:1;stroke:none;stroke-width:1.8285799"
           d="m 88.627252,107.49003 c 0.170638,0.1473 0.585042,0.0982 0.97507,0.0982 1.048201,0 4.680337,0 5.728539,0 0.268143,0 0.292519,-0.0245 0.292519,-1.79207 0,-1.59567 -0.02437,-1.64477 -0.316897,-1.64477 -0.658172,0 -1.65762,0 -2.315791,0 -0.268145,0 -0.609421,-0.0246 -0.731303,-0.0982 -0.121884,-0.0737 -0.121884,-0.54007 -0.121884,-0.85921 0,-1.96391 0,-0.0737 0,-2.03755 0,-0.31914 -0.04876,-0.56463 0.170638,-0.71192 0.0975,-0.0491 0.36565,-0.0737 0.609418,-0.0737 0.438781,0 0.90194,0 1.096954,0 0.316897,0 0.268144,-0.0982 0.268144,-1.669326 0,-1.644773 0.02438,-1.742968 -0.268144,-1.742968 -0.219391,0 -0.780057,0 -1.194461,0 -0.195014,0 -0.365652,0.02455 -0.536289,-0.0982 -0.195014,-0.147293 -0.14626,-0.417331 -0.14626,-0.638269 0,-1.644773 0,-0.147293 0,-1.792066 0,-0.319135 0,-0.294587 0.121884,-0.46643 0.07313,-0.0982 0.365651,-0.122743 0.560665,-0.122743 0.463158,0 1.779503,0 2.437676,0 0.316897,0 0.316897,-0.0982 0.316897,-1.865712 0,-1.49748 0,-1.571127 -0.292521,-1.571127 -1.340722,0 -4.72909,0 -6.069812,0 -0.243767,0 -0.414404,0 -0.560666,0.196391 -0.14626,0.196391 -0.170637,0.22094 -0.170637,0.540075 0,5.891724 0,9.623155 0,15.514875 0,0.29459 -0.04876,0.66282 0.146261,0.83466 z"
           id="path19164" />
        <path
           style="font-style:normal;font-variant:normal;font-weight:bold;font-stretch:normal;font-size:21.64652824px;line-height:0.25;font-family:'Garage Gothic';-inkscape-font-specification:'Garage Gothic Bold';text-align:start;letter-spacing:0px;word-spacing:0px;text-anchor:start;fill:#ffffff;fill-opacity:1;stroke:none;stroke-width:1.8285799"
           d="m 66.996998,90.403782 c -0.706927,0 -0.731221,4.42e-4 -0.731221,0.736907 v 15.711181 c 0,0.76103 0.243838,0.73639 1.682068,0.73639 1.681995,0 1.974556,6e-5 1.974556,-0.54001 v -6.18619 c 0,-0.31913 0.04861,-0.29456 0.609266,-0.29456 0.706925,0 0.609264,0.78541 0.609264,1.47278 v 5.05706 c 0,0.51553 0.0489,0.49092 1.804025,0.49092 1.706372,0 1.852599,0.0243 1.852599,-0.36845 v -6.28437 c 0,-2.111201 -1.901174,-1.963696 -1.901174,-2.06189 0,-0.122746 1.804022,-0.27004 1.804022,-2.479435 v -1.964221 c 0,-2.528531 -1.706846,-4.026112 -4.266407,-4.026112 z m 3.436998,3.55999 c 0.706927,0 0.609783,0.78541 0.609783,1.472779 v 1.006658 c 0,0.270036 -0.07349,0.809768 -0.609783,0.809768 -0.414403,0 -0.511595,0.02457 -0.511595,-0.294556 v -2.700094 c 0,-0.319135 0.07281,-0.294555 0.511595,-0.294555 z"
           id="path19162"
           inkscape:connector-curvature="0" />
        <path
           style="font-style:normal;font-variant:normal;font-weight:bold;font-stretch:normal;font-size:21.64652824px;line-height:0.25;font-family:'Garage Gothic';-inkscape-font-specification:'Garage Gothic Bold';text-align:start;letter-spacing:0px;word-spacing:0px;text-anchor:start;fill:#ffffff;fill-opacity:1;stroke:none;stroke-width:1.8285799"
           d="m 48.19567,90.379496 c -0.53629,0 -1.803847,0.02477 -1.8526,0.368453 -0.926316,6.333601 -1.535623,10.162791 -2.583823,16.619141 -0.02438,0.22094 1.389283,0.22117 1.754931,0.22117 0.780058,0 1.633403,0.0245 1.657782,-0.24546 0.121883,-1.42383 0.194804,-2.01318 0.341063,-3.38791 0.02438,-0.24549 0.268063,-0.19637 0.731221,-0.19637 0.390028,0 0.609696,-0.0491 0.634072,0.19637 0.195014,1.35018 0.268007,1.96409 0.463021,3.33882 0.04876,0.34369 0.853183,0.29455 1.56011,0.29455 0.658172,0 1.974736,0.0245 1.925981,-0.24546 -1.145706,-6.4318 -1.804339,-10.236969 -2.852539,-16.521471 -0.07313,-0.417333 -1.169802,-0.441833 -1.779219,-0.441833 z m 0,5.670971 c 0.170637,0 0.243911,0.932489 0.243911,1.055232 0.121883,1.939361 0.195072,2.676165 0.268203,4.149101 0,0.24548 -0.195128,0.17157 -0.536403,0.17157 -0.414404,0 -0.463537,10e-6 -0.463537,-0.19638 0.07313,-1.497479 0.170693,-2.233782 0.2682,-4.001299 0,-0.0982 0.07337,-1.178224 0.219626,-1.178224 z"
           id="path19158"
           inkscape:connector-curvature="0" />
        <path
           style="font-style:normal;font-variant:normal;font-weight:bold;font-stretch:normal;font-size:21.64652824px;line-height:0.25;font-family:'Garage Gothic';-inkscape-font-specification:'Garage Gothic Bold';text-align:start;letter-spacing:0px;word-spacing:0px;text-anchor:start;fill:#ffffff;fill-opacity:1;stroke:none;stroke-width:1.8285799"
           d="m 23.638927,90.403782 c -0.706926,0 -0.731222,4.42e-4 -0.731222,0.736907 v 15.711181 c 0,0.76103 0.219108,0.73639 1.779219,0.73639 1.560113,0 1.876888,0.0489 1.876888,-0.41754 v -4.44314 c 0,-0.9083 0.219752,-1.03095 0.609783,-1.03095 2.55956,0 4.26589,-1.49758 4.26589,-4.026106 v -3.24063 c 0,-2.528531 -1.70633,-4.026112 -4.26589,-4.026112 z m 3.534668,3.55999 c 0.706927,0 0.609264,0.78541 0.609264,1.472779 v 1.472777 c 0,0.687369 0.09766,1.473295 -0.609264,1.473295 -0.633796,0 -0.609783,0.02457 -0.609783,-0.294555 v -3.829741 c 0,-0.319135 -0.02401,-0.294555 0.609783,-0.294555 z"
           id="path19154"
           inkscape:connector-curvature="0" />
      </g>
      <g
         id="text19393"
         style="font-style:normal;font-variant:normal;font-weight:normal;font-stretch:normal;font-size:17.57345772px;line-height:0.25;font-family:'Placard Condensed';-inkscape-font-specification:'Placard Condensed, ';text-align:start;letter-spacing:0px;word-spacing:0px;text-anchor:start;fill:#000000;fill-opacity:1;stroke:none;stroke-width:1.31800926"
         aria-label="STRONG LANGUAGE" />
      <g
         transform="translate(0,0.09921875)"
         id="text55"
         style="font-style:normal;font-variant:normal;font-weight:normal;font-stretch:normal;font-size:16.72061157px;line-height:0.25;font-family:'Franklin Gothic Demi Cond';-inkscape-font-specification:'Franklin Gothic Demi Cond';text-align:start;letter-spacing:0px;word-spacing:0px;text-anchor:start;fill:#000000;fill-opacity:1;stroke:none;stroke-width:1.25404596"
         aria-label="STRONG LANGUAGE">
        <path
           inkscape:connector-curvature="0"
           id="path57"
           style="font-style:normal;font-variant:normal;font-weight:normal;font-stretch:normal;font-family:'Franklin Gothic';-inkscape-font-specification:'Franklin Gothic';stroke-width:1.25404596"
           d="m 39.288971,206.03398 2.494213,-1.00422 q 0.371478,0.85726 0.812353,1.28181 0.444958,0.42454 1.240983,0.42454 0.518437,0 0.877669,-0.28983 0.359232,-0.28984 0.359232,-0.71438 0,-0.78786 -0.477615,-1.06545 -0.477615,-0.27759 -1.934954,-0.87359 -1.457338,-0.60008 -2.163555,-1.39611 -0.706218,-0.79602 -0.706218,-2.34725 0,-0.87767 0.530684,-1.66145 0.530683,-0.78378 1.420599,-1.24914 0.893997,-0.46945 1.894132,-0.46945 0.967476,0 1.796159,0.3429 0.828683,0.33882 1.400188,0.9389 0.575587,0.60008 0.832765,1.34304 l -2.388076,1.00421 q -0.595998,-1.31854 -1.641036,-1.31854 -0.428629,0 -0.734793,0.26126 -0.302081,0.25718 -0.302081,0.73887 0,0.53885 0.951148,0.98381 0.95523,0.44087 1.963529,0.8695 1.01238,0.42863 1.739008,1.17159 0.730711,0.73887 0.730711,2.00843 0,1.17975 -0.591916,2.10233 -0.587834,0.92257 -1.587969,1.42468 -0.996052,0.5021 -2.167637,0.5021 -1.008299,0 -1.869639,-0.34698 -0.857258,-0.35107 -1.49816,-1.02871 -0.636821,-0.68172 -0.979724,-1.63287 z" />
        <path
           inkscape:connector-curvature="0"
           id="path59"
           style="font-style:normal;font-variant:normal;font-weight:normal;font-stretch:normal;font-family:'Franklin Gothic';-inkscape-font-specification:'Franklin Gothic';stroke-width:1.25404596"
           d="m 47.943194,199.21265 v -2.30643 h 8.392963 v 2.30643 H 53.646 v 9.59721 h -3.012649 v -9.59721 z" />
        <path
           inkscape:connector-curvature="0"
           id="path61"
           style="font-style:normal;font-variant:normal;font-weight:normal;font-stretch:normal;font-family:'Franklin Gothic';-inkscape-font-specification:'Franklin Gothic';stroke-width:1.25404596"
           d="m 56.944402,208.80986 v -11.90364 h 4.482235 q 1.155257,0 2.061501,0.3674 0.906244,0.36331 1.420599,1.12668 0.514354,0.75929 0.514354,1.88189 0,0.93073 -0.547012,1.66961 -0.547012,0.73479 -1.44101,1.07361 l 1.988022,5.78445 h -2.975909 l -1.489996,-5.15171 h -1.000134 v 5.15171 z m 3.01265,-9.69926 v 2.64117 h 0.583751 q 1.873721,0 1.873721,-1.30222 0,-0.84092 -0.510272,-1.08994 -0.506191,-0.24901 -1.445092,-0.24901 z" />
        <path
           inkscape:connector-curvature="0"
           id="path63"
           style="font-style:normal;font-variant:normal;font-weight:normal;font-stretch:normal;font-family:'Franklin Gothic';-inkscape-font-specification:'Franklin Gothic';stroke-width:1.25404596"
           d="m 65.651695,202.85804 q 0,-1.20832 0.236766,-2.30235 0.240849,-1.09402 0.779697,-1.97986 0.54293,-0.88583 1.445092,-1.3961 0.902162,-0.51027 2.17172,-0.51027 1.277722,0 2.179884,0.51435 0.902162,0.51027 1.436928,1.39202 0.538848,0.87767 0.775614,1.96353 0.236767,1.08586 0.236767,2.31868 0,1.65737 -0.444958,3.04939 -0.440876,1.39202 -1.47775,2.26561 -1.036873,0.8695 -2.706485,0.8695 -1.673694,0 -2.710568,-0.8695 -1.036874,-0.87359 -1.481832,-2.26561 -0.440875,-1.39202 -0.440875,-3.04939 z m 3.245333,0 q 0,1.47775 0.06531,2.25336 0.06531,0.77154 0.367396,1.24915 0.302082,0.47762 0.955231,0.47762 0.653149,0 0.95523,-0.47762 0.302081,-0.47761 0.367396,-1.24915 0.06531,-0.77561 0.06531,-2.25336 0,-1.12668 -0.02858,-1.75534 -0.02449,-0.62865 -0.151041,-1.14301 -0.126547,-0.51843 -0.416382,-0.8001 -0.289835,-0.28168 -0.791943,-0.28168 -0.502108,0 -0.791943,0.28168 -0.285753,0.28167 -0.412301,0.79194 -0.122465,0.51027 -0.155122,1.14709 -0.02858,0.63274 -0.02858,1.75942 z" />
        <path
           inkscape:connector-curvature="0"
           id="path65"
           style="font-style:normal;font-variant:normal;font-weight:normal;font-stretch:normal;font-family:'Franklin Gothic';-inkscape-font-specification:'Franklin Gothic';stroke-width:1.25404596"
           d="m 75.853063,208.80986 v -11.90364 h 2.510541 l 3.42495,6.40086 h 0.03674 v -6.40086 h 2.408487 v 11.90364 h -2.408487 l -3.531086,-6.63763 h -0.03266 v 6.63763 z" />
        <path
           inkscape:connector-curvature="0"
           id="path67"
           style="font-style:normal;font-variant:normal;font-weight:normal;font-stretch:normal;font-family:'Franklin Gothic';-inkscape-font-specification:'Franklin Gothic';stroke-width:1.25404596"
           d="m 94.010603,202.8907 v 6.10286 h -1.257311 l -0.583752,-1.10219 q -0.481697,0.55518 -1.196079,0.85318 -0.710299,0.29799 -1.412435,0.29799 -1.502242,0 -2.486047,-0.73479 -0.979724,-0.73887 -1.436928,-2.05333 -0.457204,-1.31855 -0.457204,-3.0943 0,-2.7718 1.061367,-4.62919 1.061367,-1.86147 3.571908,-1.86147 1.432845,0 2.392157,0.55925 0.963395,0.55518 1.424681,1.56756 0.461287,1.01238 0.461287,2.35542 h -2.910595 q -0.05307,-0.84909 -0.142876,-1.29813 -0.08981,-0.45313 -0.359232,-0.71439 -0.265342,-0.26126 -0.800107,-0.26126 -0.600081,0 -0.922573,0.51436 -0.31841,0.51027 -0.424547,1.36753 -0.106137,0.85726 -0.106137,2.11457 0,1.41652 0.09389,2.23295 0.09389,0.81236 0.420465,1.27364 0.330657,0.45721 1.004216,0.45721 0.473533,0 0.80419,-0.31025 0.330657,-0.31024 0.489862,-0.76337 0.163287,-0.4572 0.163287,-0.86542 h -1.506325 v -2.00843 z" />
        <path
           inkscape:connector-curvature="0"
           id="path69"
           style="font-style:normal;font-variant:normal;font-weight:normal;font-stretch:normal;font-family:'Franklin Gothic';-inkscape-font-specification:'Franklin Gothic';stroke-width:1.25404596"
           d="m 99.856287,208.80986 v -11.90364 h 3.012653 v 9.79724 h 4.07809 v 2.1064 z" />
        <path
           inkscape:connector-curvature="0"
           id="path71"
           style="font-style:normal;font-variant:normal;font-weight:normal;font-stretch:normal;font-family:'Franklin Gothic';-inkscape-font-specification:'Franklin Gothic';stroke-width:1.25404596"
           d="m 106.97153,208.80986 2.79221,-11.90364 h 3.94747 l 2.53911,11.90364 h -3.04122 l -0.46945,-2.40849 h -2.75956 l -0.51843,2.40849 z m 4.44957,-9.36452 -1.02054,4.84963 h 1.9227 l -0.8695,-4.84963 z" />
        <path
           inkscape:connector-curvature="0"
           id="path73"
           style="font-style:normal;font-variant:normal;font-weight:normal;font-stretch:normal;font-family:'Franklin Gothic';-inkscape-font-specification:'Franklin Gothic';stroke-width:1.25404596"
           d="m 116.87081,208.80986 v -11.90364 h 2.51054 l 3.42495,6.40086 h 0.0367 v -6.40086 h 2.40849 v 11.90364 H 122.843 l -3.53108,-6.63763 h -0.0327 v 6.63763 z" />
        <path
           inkscape:connector-curvature="0"
           id="path75"
           style="font-style:normal;font-variant:normal;font-weight:normal;font-stretch:normal;font-family:'Franklin Gothic';-inkscape-font-specification:'Franklin Gothic';stroke-width:1.25404596"
           d="m 135.02835,202.8907 v 6.10286 h -1.25731 l -0.58375,-1.10219 q -0.4817,0.55518 -1.19608,0.85318 -0.7103,0.29799 -1.41243,0.29799 -1.50225,0 -2.48605,-0.73479 -0.97973,-0.73887 -1.43693,-2.05333 -0.4572,-1.31855 -0.4572,-3.0943 0,-2.7718 1.06136,-4.62919 1.06137,-1.86147 3.57191,-1.86147 1.43285,0 2.39216,0.55925 0.96339,0.55518 1.42468,1.56756 0.46129,1.01238 0.46129,2.35542 h -2.9106 q -0.0531,-0.84909 -0.14287,-1.29813 -0.0898,-0.45313 -0.35924,-0.71439 -0.26534,-0.26126 -0.8001,-0.26126 -0.60008,0 -0.92258,0.51436 -0.31841,0.51027 -0.42454,1.36753 -0.10614,0.85726 -0.10614,2.11457 0,1.41652 0.0939,2.23295 0.0939,0.81236 0.42046,1.27364 0.33066,0.45721 1.00422,0.45721 0.47353,0 0.80419,-0.31025 0.33066,-0.31024 0.48986,-0.76337 0.16329,-0.4572 0.16329,-0.86542 h -1.50632 v -2.00843 z" />
        <path
           inkscape:connector-curvature="0"
           id="path77"
           style="font-style:normal;font-variant:normal;font-weight:normal;font-stretch:normal;font-family:'Franklin Gothic';-inkscape-font-specification:'Franklin Gothic';stroke-width:1.25404596"
           d="m 144.46227,196.90622 v 8.12354 q 0,1.32263 -0.4817,2.22479 -0.47761,0.89808 -1.40018,1.34304 -0.91849,0.44495 -2.23296,0.44495 -1.34712,0 -2.22478,-0.46128 -0.87767,-0.46537 -1.30222,-1.36345 -0.42047,-0.90216 -0.42047,-2.18805 v -8.12354 h 3.01265 v 8.25825 q 0,1.6737 1.30222,1.6737 1.2369,0 1.2369,-1.82474 v -8.10721 z" />
        <path
           inkscape:connector-curvature="0"
           id="path79"
           style="font-style:normal;font-variant:normal;font-weight:normal;font-stretch:normal;font-family:'Franklin Gothic';-inkscape-font-specification:'Franklin Gothic';stroke-width:1.25404596"
           d="m 145.08276,208.80986 2.79221,-11.90364 h 3.94747 l 2.53912,11.90364 h -3.04123 l -0.46945,-2.40849 h -2.75955 l -0.51844,2.40849 z m 4.44958,-9.36452 -1.02055,4.84963 h 1.92271 l -0.8695,-4.84963 z" />
        <path
           inkscape:connector-curvature="0"
           id="path81"
           style="font-style:normal;font-variant:normal;font-weight:normal;font-stretch:normal;font-family:'Franklin Gothic';-inkscape-font-specification:'Franklin Gothic';stroke-width:1.25404596"
           d="m 163.21173,202.8907 v 6.10286 h -1.25732 l -0.58375,-1.10219 q -0.4817,0.55518 -1.19608,0.85318 -0.7103,0.29799 -1.41243,0.29799 -1.50224,0 -2.48605,-0.73479 -0.97972,-0.73887 -1.43693,-2.05333 -0.4572,-1.31855 -0.4572,-3.0943 0,-2.7718 1.06137,-4.62919 1.06136,-1.86147 3.5719,-1.86147 1.43285,0 2.39216,0.55925 0.9634,0.55518 1.42468,1.56756 0.46129,1.01238 0.46129,2.35542 h -2.9106 q -0.0531,-0.84909 -0.14287,-1.29813 -0.0898,-0.45313 -0.35923,-0.71439 -0.26535,-0.26126 -0.80011,-0.26126 -0.60008,0 -0.92257,0.51436 -0.31841,0.51027 -0.42455,1.36753 -0.10614,0.85726 -0.10614,2.11457 0,1.41652 0.0939,2.23295 0.0939,0.81236 0.42047,1.27364 0.33065,0.45721 1.00421,0.45721 0.47354,0 0.80419,-0.31025 0.33066,-0.31024 0.48986,-0.76337 0.16329,-0.4572 0.16329,-0.86542 h -1.50632 v -2.00843 z" />
        <path
           inkscape:connector-curvature="0"
           id="path83"
           style="font-style:normal;font-variant:normal;font-weight:normal;font-stretch:normal;font-family:'Franklin Gothic';-inkscape-font-specification:'Franklin Gothic';stroke-width:1.25404596"
           d="m 164.58334,208.80986 v -11.90364 h 7.4908 v 2.30643 h -4.47815 v 2.40849 h 3.00856 v 2.30643 h -3.00856 v 2.4738 h 4.47815 v 2.40849 z" />
      </g>
      <path
         inkscape:connector-curvature="0"
         id="rect86"
         transform="scale(0.26458333)"
         d="m 159.89453,711.05078 c -29.89957,0 -53.9707,24.07113 -53.9707,53.9707 v 3.52735 c 0,29.89958 24.07113,53.9707 53.9707,53.9707 h 480.63086 c 29.89958,0 53.96875,-24.07112 53.96875,-53.9707 v -3.52735 c 0,-29.89957 -24.06917,-53.9707 -53.96875,-53.9707 z m -0.26953,14.64258 h 481.16797 c 21.34458,0 38.52734,17.18468 38.52734,38.5293 v 5.125 c 0,21.34461 -17.18276,38.52929 -38.52734,38.52929 H 159.625 c -21.34461,0 -38.52734,-17.18468 -38.52734,-38.52929 v -5.125 c 0,-21.34462 17.18273,-38.5293 38.52734,-38.5293 z"
         style="opacity:1;fill:#000000;fill-opacity:1;stroke:none;stroke-width:10.55718613;stroke-linecap:butt;stroke-linejoin:miter;stroke-miterlimit:4;stroke-dasharray:none;stroke-opacity:1;paint-order:markers stroke fill" />
    </g>
  </g>
</svg>
