<svg id="Layer_1" xmlns="http://www.w3.org/2000/svg" viewBox="0 0 78 52"><style>.st0{fill:#128D9C;} .st1{opacity:0.28;fill:#C2C4C4;} .st2{fill:#303548;} .st3{opacity:0.59;fill:#C6C6C6;} .st4{fill:#AF0800;} .st5{fill:#990000;} .st6{fill:#6ED5F9;} .st7{fill:#CECECE;} .st8{opacity:0.5;fill:#FFFFFF;} .st9{fill:#2C2C2C;} .st10{fill:#D41C6F;} .st11{fill:#FFFFFF;} .st12{fill:#EA2923;} .st13{fill:#005761;} .st14{enable-background:new ;} .st15{fill:#1B8E9A;} .st16{fill:#008AAA;} .st17{fill:#00D2A9;} .st18{fill:#D31C6F;} .st19{fill:#FF2C9F;} .st20{fill:#F63400;} .st21{fill:#F66C06;} .st22{fill:#9FE600;} .st23{fill:#FFE615;} .st24{fill:#6345A2;} .st25{fill:#E61512;} .st26{fill:#29C5FE;}</style><path class="st9" d="M0 0h78v52H0z"/><path class="st11" d="M8 20.89v6.69h.92v-2.91h.38c.47 0 .85.16 1.68 1.54l.83 1.37h1.09c-.43-.64-.59-.86-.86-1.32-.48-.84-.83-1.44-1.4-1.85.67-.29 1.05-.86 1.05-1.65 0-1.15-.8-1.86-2.07-1.86H8v-.01zm.9.83h.59c.88 0 1.23.38 1.24 1.01.02.57-.28 1.08-1.24 1.08H8.9v-2.09z"/><path class="st11" d="M16.17 20.86h-.64l-2.71 6.73h.93l.8-1.97h2.68l.85 1.97h.93l-2.84-6.73zm-.32 1.48l1.02 2.41H14.9l.95-2.41zm3.9 5.24h2.47c2.09 0 3.35-1.63 3.35-3.35 0-1.57-1.02-3.34-3.35-3.34h-2.45v6.69h-.02zm.92-5.83h1.4c1.78 0 2.58 1.13 2.58 2.49 0 .82-.47 2.49-2.52 2.49h-1.45l-.01-4.98zm5.94-.86h.92v6.69h-.92m1.97-3.34c0 1.81 1.31 3.44 3.37 3.44 2.14 0 3.42-1.63 3.42-3.44 0-1.86-1.31-3.44-3.4-3.44-2.06.02-3.39 1.59-3.39 3.44zm.94 0c0-1.46 1.05-2.54 2.45-2.54 1.42 0 2.47 1.08 2.47 2.54s-1.05 2.54-2.47 2.54c-1.42 0-2.45-1.08-2.45-2.54zM54.89 10.97c-8.34 0-15.11 6.75-15.11 15.07s6.77 15.07 15.11 15.07S70 34.36 70 26.04s-6.77-15.07-15.11-15.07zm2.77 25.16h-5.31V21.71h-2.28l3.15-5.82h4.46v20.24h-.02zM17.44 10.89h8.19v7.71h-8.19v-7.71zm6.24 5.12c0-.7-.47-1.23-1.21-1.44.2-.1.36-.23.48-.38.16-.21.23-.46.23-.75 0-.36-.14-.73-.45-1.01s-.77-.45-1.4-.45h-1.75v5.55h2.05c.73 0 1.24-.2 1.58-.49.33-.3.47-.68.47-1.03z"/><path class="st11" d="M22.66 15.9c0 .18-.06.37-.22.51s-.45.25-.91.25h-.94v-1.51h.9c.42 0 .72.09.91.22.18.13.26.3.26.53m-.76-1.82c.18-.13.26-.3.26-.58 0-.18-.05-.35-.18-.46-.13-.12-.36-.2-.72-.2h-.67v1.44h.46c.39 0 .67-.08.85-.2M8 10.89h8.19v7.71H8v-7.71zm6.24 5.12c0-.7-.47-1.23-1.21-1.44.2-.1.36-.23.48-.38.16-.21.23-.46.23-.75 0-.36-.14-.73-.45-1.01s-.77-.45-1.4-.45h-1.75v5.55h2.05c.73 0 1.24-.2 1.58-.49.33-.3.47-.68.47-1.03z"/><path class="st11" d="M12.46 14.08c.17-.13.26-.3.26-.58 0-.18-.05-.35-.19-.46-.13-.12-.36-.2-.72-.2h-.67v1.44h.46c.4 0 .68-.08.86-.2m.49 1.28c-.19-.13-.49-.22-.91-.22h-.9v1.51h.94c.47 0 .75-.11.91-.25s.22-.33.22-.51c.01-.22-.07-.39-.26-.53M26.88 10.89h8.19v7.71h-8.19v-7.71zm6.56 5.15l-.13.08c-.63.39-1.32.59-1.95.59-1.34-.01-2.23-.8-2.23-1.96 0-1.13.93-1.97 2.2-1.97.64 0 1.23.17 1.93.55l.13.07v-1.04l-.06-.02c-.79-.31-1.39-.45-2-.45-.93 0-1.74.3-2.31.83-.58.52-.91 1.25-.91 2.1 0 .59.24 1.28.77 1.82.52.55 1.32.95 2.41.94h.01c.91 0 1.54-.2 2.11-.48l.05-.02-.02-1.04z"/></svg>