<?xml version="1.0" encoding="UTF-8" standalone="no"?>
<!-- Created with Inkscape (http://www.inkscape.org/) -->
<svg xmlns:svg="http://www.w3.org/2000/svg" xmlns="http://www.w3.org/2000/svg" version="1.0" width="708.66144" height="1051.1361" id="svg5082">
  <defs id="defs5084">
    <clipPath id="clp5">
<path d="M 0,655.56 L 792,655.56 L 792,0.36 L 0,0.36 L 0,655.56 z " id="path4445"/>

</clipPath>
    <clipPath id="clp4">
<path d="M 0,655 L 792,655 L 792,0 L 0,0 L 0,655 z " id="path4440"/>

</clipPath>
  </defs>
  <g transform="translate(-976.37787,73.783472)" id="layer1">
    <g transform="matrix(13.38135,0,0,13.38135,-12088.874,-12100.945)" id="g5112">
      <path d="M 987.12172,970.63918 C 987.12172,969.20415 985.46208,968.74245 983.54038,968.20587 C 980.5705,967.39477 976.87685,966.37153 976.87685,961.45499 C 976.87685,957.05007 981.44399,955.04102 985.69917,955.04102 C 988.07009,955.04102 990.81537,955.50273 992.72458,956.21401 C 992.68714,956.30136 991.21468,960.08235 991.17724,960.1697 C 990.84032,960.05739 988.68154,959.33364 986.4354,959.33364 C 983.82739,959.33364 982.55458,959.995 982.55458,961.35516 C 982.55458,962.85258 984.31405,963.33924 986.34805,963.90078 C 989.33042,964.72436 993.03654,965.7476 993.03654,970.35218 C 993.03654,976.39178 987.24651,977.30271 983.78996,977.30271 C 980.49562,977.30271 978.42419,976.67879 976.60232,976.04238 C 976.63976,975.94256 978.09975,972.17404 978.13718,972.07421 C 978.89837,972.3737 980.8575,972.99762 983.46551,972.99762 C 985.13764,972.99762 987.12172,972.58583 987.12172,970.63918" style="fill:#ffffff;fill-rule:nonzero;stroke:none;stroke-width:0.065;stroke-linecap:butt;stroke-linejoin:miter;stroke-miterlimit:3.86400008;stroke-dasharray:none" id="path4451"/>
      <path d="M 1009.633,955.47777 C 1009.633,955.59008 1009.633,959.73295 1009.633,959.83278 C 1009.5207,959.83278 1000.6984,959.83278 1000.6984,959.83278 L 1000.6984,963.92573 C 1000.6984,963.92573 1009.2711,963.92573 1009.3709,963.92573 C 1009.3709,964.02556 1009.3709,968.18091 1009.3709,968.28074 C 1009.2711,968.28074 1000.6984,968.28074 1000.6984,968.28074 C 1000.6984,968.28074 1000.6984,976.97827 1000.6984,977.0781 C 1000.5985,977.0781 995.45738,977.0781 995.35755,977.0781 C 995.35755,976.97827 995.35755,955.59008 995.35755,955.47777 C 995.46986,955.47777 1009.5207,955.47777 1009.633,955.47777" style="fill:#ffffff;fill-rule:nonzero;stroke:none;stroke-width:0.065;stroke-linecap:butt;stroke-linejoin:miter;stroke-miterlimit:3.86400008;stroke-dasharray:none" id="path4453"/>
      <path d="M 976.42762,898.85022 C 976.42762,898.96253 976.42762,951.23507 976.42762,951.34738 C 976.52745,951.34738 1028.8125,951.34738 1028.9123,951.34738 C 1028.9123,951.23507 1028.9123,898.96253 1028.9123,898.85022 C 1028.8125,898.85022 976.52745,898.85022 976.42762,898.85022 z M 980.14623,902.56882 L 989.79213,902.56882 L 989.62991,902.66865 C 985.96122,904.85239 982.3674,908.3339 980.24605,911.74054 L 980.14623,911.90276 L 980.14623,902.56882 z M 980.14623,947.62878 L 980.14623,938.29484 L 980.24605,938.45706 C 982.64193,942.25054 986.1484,945.55734 989.85452,947.52895 L 990.0417,947.62878 L 980.14623,947.62878 z M 1000.8107,937.75827 L 1000.7483,937.74579 C 994.3967,936.83485 989.60495,931.39422 989.60495,925.09256 C 989.60495,918.04219 995.46986,912.30207 1002.67,912.30207 C 1009.8701,912.30207 1015.735,918.04219 1015.735,925.09256 C 1015.735,931.39422 1010.9432,936.83485 1004.5917,937.74579 L 1004.5293,937.75827 L 1004.5293,933.85249 L 1004.5792,933.84001 C 1008.7595,932.96651 1011.8042,929.29783 1011.8042,925.09256 C 1011.8042,920.17602 1007.7113,916.15794 1002.67,916.15794 C 997.64112,916.15794 993.54816,920.17602 993.54816,925.09256 C 993.54816,929.29783 996.58044,932.96651 1000.7732,933.84001 L 1000.8107,933.85249 L 1000.8107,937.75827 z M 998.16522,925.09256 C 998.16522,922.67173 1000.1867,920.68764 1002.67,920.68764 C 1005.1532,920.68764 1007.1747,922.67173 1007.1747,925.09256 C 1007.1747,927.52587 1005.1532,929.50996 1002.67,929.50996 C 1000.1867,929.50996 998.16522,927.52587 998.16522,925.09256 z M 1004.5293,946.19375 L 1004.5293,942.32541 L 1004.5792,942.31293 C 1013.5762,941.36456 1020.3645,933.96479 1020.3645,925.09256 C 1020.3645,915.54649 1012.4282,907.78485 1002.67,907.78485 C 992.92424,907.78485 984.98789,915.54649 984.98789,925.09256 C 984.98789,933.96479 991.76373,941.36456 1000.7608,942.31293 L 1000.8107,942.32541 L 1000.8107,946.19375 L 1000.7483,946.18127 C 995.39498,945.71957 990.42853,943.32369 986.75984,939.43039 C 983.07868,935.51213 981.05716,930.42089 981.05716,925.09256 C 981.05716,913.42514 990.75297,903.92898 1002.67,903.92898 C 1014.5994,903.92898 1024.2953,913.42514 1024.2953,925.09256 C 1024.2953,930.42089 1022.2613,935.51213 1018.5801,939.43039 C 1014.9239,943.32369 1009.9574,945.71957 1004.5917,946.18127 L 1004.5293,946.19375 z M 1025.1937,947.62878 L 1015.3981,947.62878 L 1015.5728,947.52895 C 1019.4785,945.30777 1023.1223,941.82627 1025.0939,938.45706 L 1025.1937,938.28236 L 1025.1937,947.62878 z M 1025.1937,911.90276 L 1025.0939,911.74054 C 1022.8727,908.1592 1019.4161,904.85239 1015.6352,902.66865 L 1015.4605,902.56882 L 1025.1937,902.56882 L 1025.1937,911.90276" style="fill:#ffffff;fill-rule:nonzero;stroke:none;stroke-width:0.065;stroke-linecap:butt;stroke-linejoin:miter;stroke-miterlimit:3.86400008;stroke-dasharray:none" id="path4455"/>
      <path d="M 1025.2561,966.17187 L 1025.0689,966.12196 L 1025.2561,966.07204 C 1027.6145,965.37324 1028.7626,963.7136 1028.7626,961.00576 C 1028.7626,956.17657 1025.6305,955.24068 1020.2522,955.24068 C 1016.6584,955.24068 1012.6777,955.42786 1012.2036,955.45282 C 1012.2036,955.55264 1012.2036,976.92836 1012.2036,977.02819 C 1012.6902,977.04067 1016.8456,977.17793 1020.377,977.17793 C 1024.6821,977.17793 1029.2742,976.71622 1029.2742,971.21319 C 1029.2742,969.70329 1028.7626,967.05784 1025.2561,966.17187 z M 1017.7191,959.44594 L 1020.2772,959.40851 C 1022.2488,959.40851 1023.3968,959.79534 1023.3968,961.74199 C 1023.3968,963.20198 1022.3236,964.11291 1020.6266,964.11291 L 1017.6692,964.11291 L 1017.6692,959.49586 L 1017.6567,959.44594 L 1017.7191,959.44594 z M 1020.2772,973.0101 L 1017.6692,972.97267 L 1017.6692,968.28074 L 1020.926,968.28074 C 1022.7105,968.28074 1023.6963,969.05441 1023.6963,970.46448 C 1023.6963,972.24891 1022.673,973.0101 1020.2772,973.0101" style="fill:#ffffff;fill-rule:nonzero;stroke:none;stroke-width:0.065;stroke-linecap:butt;stroke-linejoin:miter;stroke-miterlimit:3.86400008;stroke-dasharray:none" id="path4457"/>
      <path d="M 1023.6464,970.46448 C 1023.6464,969.14176 1022.7479,968.33065 1020.926,968.33065 L 1017.7191,968.33065 L 1017.7191,972.92275 C 1017.7191,972.92275 1019.1541,972.96019 1020.2772,972.96019 C 1022.4609,972.96019 1023.6464,972.36122 1023.6464,970.46448 z M 1023.3344,961.74199 C 1023.3344,959.84526 1022.2488,959.45842 1020.2772,959.45842 C 1018.6799,959.45842 1017.7191,959.49586 1017.7191,959.49586 L 1017.7191,964.05052 L 1020.6266,964.05052 C 1022.436,964.05052 1023.3344,963.05224 1023.3344,961.74199 z M 1029.3366,971.21319 C 1029.3366,976.65383 1024.9566,977.24032 1020.377,977.24032 C 1016.596,977.24032 1012.1536,977.0781 1012.1536,977.0781 L 1012.1536,955.4029 C 1012.1536,955.4029 1016.4088,955.19077 1020.2522,955.19077 C 1025.7053,955.19077 1028.8125,956.22648 1028.8125,961.00576 C 1028.8125,963.91326 1027.4898,965.46059 1025.2686,966.12196 C 1028.2385,966.87067 1029.3366,968.95458 1029.3366,971.21319 z M 993.08646,970.35218 C 993.08646,975.63059 988.66906,977.35263 983.78996,977.35263 C 980.49562,977.35263 978.39923,976.7287 976.52745,976.06734 L 978.11223,972.01182 C 979.23529,972.44857 981.18194,972.94771 983.46551,972.94771 C 985.23746,972.94771 987.07181,972.47353 987.07181,970.63918 C 987.07181,967.10776 976.81446,969.66586 976.81446,961.45499 C 976.81446,956.90032 981.56878,954.99111 985.69917,954.99111 C 988.10753,954.99111 990.89024,955.46529 992.79945,956.17657 L 991.21468,960.23209 C 991.21468,960.23209 988.89367,959.39603 986.4354,959.39603 C 983.88978,959.39603 982.6045,960.01996 982.6045,961.35516 C 982.6045,964.94897 993.08646,962.5531 993.08646,970.35218 z M 1009.6829,959.88269 L 1000.7608,959.88269 L 1000.7608,963.86334 L 1009.4208,963.86334 L 1009.4208,968.33065 L 1000.7608,968.33065 L 1000.7608,977.14049 L 995.30763,977.14049 L 995.30763,955.42786 L 1009.6829,955.42786 L 1009.6829,959.88269" style="fill:#0b2b4d;fill-rule:nonzero;stroke:none;stroke-width:0.065;stroke-linecap:butt;stroke-linejoin:miter;stroke-miterlimit:3.86400008;stroke-dasharray:none" id="path4459"/>
      <path d="M 976.37771,951.39729 L 1028.9747,951.39729 L 1028.9747,898.80031 L 976.37771,898.80031 L 976.37771,951.39729 z M 1002.67,929.46005 C 1000.2117,929.46005 998.21513,927.50092 998.21513,925.09256 C 998.21513,922.69669 1000.2117,920.73756 1002.67,920.73756 C 1005.1282,920.73756 1007.1248,922.69669 1007.1248,925.09256 C 1007.1248,927.50092 1005.1282,929.46005 1002.67,929.46005 z M 1004.5917,933.88992 C 1008.7345,933.0289 1011.8542,929.42261 1011.8542,925.09256 C 1011.8542,920.13859 1007.7362,916.10802 1002.67,916.10802 C 997.60368,916.10802 993.48577,920.13859 993.48577,925.09256 C 993.48577,929.42261 996.6054,933.0289 1000.7608,933.88992 L 1000.7608,937.69587 C 994.48405,936.79742 989.66734,931.49405 989.66734,925.09256 C 989.66734,918.06715 995.48233,912.36447 1002.67,912.36447 C 1009.8576,912.36447 1015.6851,918.06715 1015.6851,925.09256 C 1015.6851,931.49405 1010.8684,936.79742 1004.5917,937.69587 L 1004.5917,933.88992 z M 1004.5917,942.36284 C 1013.4764,941.42695 1020.4144,934.06462 1020.4144,925.09256 C 1020.4144,915.50905 1012.4656,907.72245 1002.67,907.72245 C 992.87432,907.72245 984.9255,915.50905 984.9255,925.09256 C 984.9255,934.06462 991.86356,941.42695 1000.7608,942.36284 L 1000.7608,946.13136 C 989.74221,945.18299 981.10707,936.13606 981.10707,925.09256 C 981.10707,913.43762 990.75297,903.9789 1002.67,903.9789 C 1014.587,903.9789 1024.2453,913.43762 1024.2453,925.09256 C 1024.2453,936.13606 1015.5977,945.18299 1004.5917,946.13136 L 1004.5917,942.36284 z M 980.19614,902.61874 L 989.60495,902.61874 C 986.01113,904.76504 982.39236,908.19664 980.19614,911.71558 L 980.19614,902.61874 z M 980.19614,947.57887 L 980.19614,938.48202 C 982.87902,942.69976 986.52275,945.80692 989.82956,947.57887 L 980.19614,947.57887 z M 1025.1438,947.57887 L 1015.5977,947.57887 C 1019.2789,945.46999 1023.0349,942.08831 1025.1438,938.48202 L 1025.1438,947.57887 z M 1015.6601,902.61874 L 1025.1438,902.61874 L 1025.1438,911.71558 C 1022.96,908.19664 1019.5285,904.85239 1015.6601,902.61874" style="fill:#0b2b4d;fill-rule:nonzero;stroke:none;stroke-width:0.065;stroke-linecap:butt;stroke-linejoin:miter;stroke-miterlimit:3.86400008;stroke-dasharray:none" id="path4461"/>
    </g>
  </g>
</svg>