<svg xmlns="http://www.w3.org/2000/svg">
<symbol id="ear-slash" viewBox="0 0 640 512">
<path d="M566.6 118.6L526.6 158.6C514.1 171.1 493.8 171.1 481.3 158.6C468.8 146.1 468.8 125.8 481.3 113.3L521.3 73.3C533.8 60.8 554.1 60.8 566.6 73.3C579.1 85.8 579.1 106.1 566.6 118.6zM246.6 438.6L118.6 566.6C106.1 579.1 85.8 579.1 73.3 566.6C60.8 554.1 60.8 533.8 73.3 521.3L201.3 393.3C213.8 380.8 234.1 380.8 246.6 393.3C259.1 405.8 259.1 426.1 246.6 438.6zM304 192C246.4 192 198.9 235.6 192.7 291.5C190.8 309.1 174.9 321.7 157.4 319.8C139.9 317.9 127.2 302 129.1 284.5C138.8 196.5 213.4 128 304 128C401.2 128 480 206.8 480 304C480 350 462.3 391.9 433.4 423.3C421.4 436.3 416 448.1 416 458L416 464.1C416 526 365.9 576.1 304 576.1C286.3 576.1 272 561.8 272 544.1C272 526.4 286.3 512.1 304 512.1C330.5 512.1 352 490.6 352 464.1L352 458C352 425.1 369.4 398.4 386.4 380C404.8 360 416 333.4 416 304.1C416 242.2 365.9 192.1 304 192.1zM304 272C286.3 272 272 286.3 272 304C272 317.3 261.3 328 248 328C234.7 328 224 317.3 224 304C224 259.8 259.8 224 304 224C348.2 224 384 259.8 384 304C384 317.3 373.3 328 360 328C346.7 328 336 317.3 336 304C336 286.3 321.7 272 304 272z"/>
</symbol>

<symbol id="eye-slash" viewBox="0 0 640 512">
<path d="M320 400c-75.85 0-137.25-58.71-142.9-133.11L72.2 185.82c-13.79 17.3-26.48 35.59-36.72 55.59a32.35 32.35 0 0 0 0 29.19C89.71 376.41 197.07 448 320 448c26.91 0 52.87-4 77.89-10.46L346 397.39a144.13 144.13 0 0 1-26 2.61zm313.82 58.1l-110.55-85.44a331.25 331.25 0 0 0 81.25-102.07 32.35 32.35 0 0 0 0-29.19C550.29 135.59 442.93 64 320 64a308.15 308.15 0 0 0-147.32 37.7L45.46 3.37A16 16 0 0 0 23 6.18L3.37 31.45A16 16 0 0 0 6.18 53.9l588.36 454.73a16 16 0 0 0 22.46-2.81l19.64-25.27a16 16 0 0 0-2.82-22.45zm-183.72-142l-39.3-30.38A94.75 94.75 0 0 0 416 256a94.76 94.76 0 0 0-121.31-92.21A47.65 47.65 0 0 1 304 192a46.64 46.64 0 0 1-1.54 10l-73.61-56.89A142.31 142.31 0 0 1 320 112a143.92 143.92 0 0 1 144 144c0 21.63-5.29 41.79-13.9 60.11z"/>
</symbol>

<symbol id="heart-crack" viewBox="0 0 640 512">
<path d="M197.1 96C214.4 96 231.3 99.4 247 105.7L301.8 190.9L226.4 266.3C224.9 267.8 224 269.9 224.1 272.1C224.2 274.3 225.1 276.3 226.7 277.8L338.7 381.8C341.6 384.5 346.1 384.7 349.2 382.1C352.3 379.5 353 375.1 350.9 371.7L290.5 273.6L381.2 198C383.8 195.9 384.7 192.3 383.6 189.2L360.4 124.6C383.6 106.3 412.6 96 442.9 96C516.4 96 576 155.6 576 229.1L576 231.7C576 343.9 436.1 474.2 363.1 529.9C350.7 539.3 335.5 544 320 544C304.5 544 289.2 539.4 276.9 529.9C203.9 474.2 64 343.9 64 231.7L64 229.1C64 155.6 123.6 96 197.1 96z"/>
</symbol>

<symbol id="map-location" viewBox="0 0 640 512">
<path d="M576 112C576 100.9 570.3 90.6 560.8 84.8C551.3 79 539.6 78.4 529.7 83.4L413.5 141.5L234.1 81.6C226 78.9 217.3 79.5 209.7 83.3L81.7 147.3C70.8 152.8 64 163.9 64 176L64 528C64 539.1 69.7 549.4 79.2 555.2C88.7 561 100.4 561.6 110.3 556.6L226.4 498.5L399.7 556.3C395.4 549.9 391.2 543.2 387.1 536.4C376.1 518.1 365.2 497.1 357.1 474.6L255.9 440.9L255.9 156.4L383.9 199.1L383.9 298.4C414.9 262.6 460.9 240 511.9 240C534.5 240 556.1 244.4 575.9 252.5L576 112zM392 405.9C392 474.8 456.1 556.3 490.6 595.2C502.2 608.2 521.9 608.2 533.5 595.2C568 556.3 632.1 474.8 632.1 405.9C632.1 340.8 578.4 288 512.1 288C445.8 288 392 340.8 392 405.9z"/>
</symbol>

<symbol id="globe" viewBox="0 0 640 512">
<path d="M415.9 344L225 344C227.9 408.5 242.2 467.9 262.5 511.4C273.9 535.9 286.2 553.2 297.6 563.8C308.8 574.3 316.5 576 320.5 576C324.5 576 332.2 574.3 343.4 563.8C354.8 553.2 367.1 535.8 378.5 511.4C398.8 467.9 413.1 408.5 416 344zM224.9 296L415.8 296C413 231.5 398.7 172.1 378.4 128.6C367 104.2 354.7 86.8 343.3 76.2C332.1 65.7 324.4 64 320.4 64C316.4 64 308.7 65.7 297.5 76.2C286.1 86.8 273.8 104.2 262.4 128.6C242.1 172.1 227.8 231.5 224.9 296zM176.9 296C180.4 210.4 202.5 130.9 234.8 78.7C142.7 111.3 74.9 195.2 65.5 296L176.9 296zM65.5 344C74.9 444.8 142.7 528.7 234.8 561.3C202.5 509.1 180.4 429.6 176.9 344L65.5 344zM463.9 344C460.4 429.6 438.3 509.1 406 561.3C498.1 528.6 565.9 444.8 575.3 344L463.9 344zM575.3 296C565.9 195.2 498.1 111.3 406 78.7C438.3 130.9 460.4 210.4 463.9 296L575.3 296z"/>
</symbol>
</svg>
