<svg xmlns="http://www.w3.org/2000/svg">

  <!-- ear-slash -->
  <symbol id="ear-slash" viewBox="0 0 512 512">
    <path d="M502.6 54.6l-40 40c-12.5 12.5-32.8 12.5-45.3 0s-12.5-32.8 0-45.3l40-40c12.5-12.5 32.8-12.5 45.3 0s12.5 32.8 0 45.3zm-320 320l-128 128c-12.5 12.5-32.8 12.5-45.3 0s-12.5-32.8 0-45.3l128-128c12.5-12.5 32.8-12.5 45.3 0s12.5 32.8 0 45.3zM240 128c-57.6 0-105.1 43.6-111.3 99.5-1.9 17.6-17.8 30.2-35.3 28.3s-30.2-17.8-28.3-35.3c9.7-88 84.3-156.5 174.9-156.5 97.2 0 176 78.8 176 176 0 46-17.7 87.9-46.6 119.3-12 13-17.4 24.8-17.4 34.7l0 6.1c0 61.9-50.1 112-112 112-17.7 0-32-14.3-32-32s14.3-32 32-32c26.5 0 48-21.5 48-48l0-6.1c0-32.9 17.4-59.6 34.4-78 18.4-20 29.6-46.6 29.6-75.9 0-61.9-50.1-112-112-112zm0 80c-17.7 0-32 14.3-32 32 0 13.3-10.7 24-24 24s-24-10.7-24-24c0-44.2 35.8-80 80-80s80 35.8 80 80c0 13.3-10.7 24-24 24s-24-10.7-24-24c0-17.7-14.3-32-32-32z"/>
  </symbol>

  <!-- eye-slash -->
  <symbol id="eye-slash" viewBox="0 0 0 0 576 512">
    <path d="M41-24.9c-9.4-9.4-24.6-9.4-33.9 0S-2.3-.3 7 9.1l528 528c9.4 9.4 24.6 9.4 33.9 0s9.4-24.6 0-33.9l-96.4-96.4c2.7-2.4 5.4-4.8 8-7.2 46.8-43.5 78.1-95.4 93-131.1 3.3-7.9 3.3-16.7 0-24.6-14.9-35.7-46.2-87.7-93-131.1-47.1-43.7-111.8-80.6-192.6-80.6-56.8 0-105.6 18.2-146 44.2L41-24.9zM204.5 138.7c23.5-16.8 52.4-26.7 83.5-26.7 79.5 0 144 64.5 144 144 0 31.1-9.9 59.9-26.7 83.5l-34.7-34.7c12.7-21.4 17-47.7 10.1-73.7-13.7-51.2-66.4-81.6-117.6-67.9-8.6 2.3-16.7 5.7-24 10l-34.7-34.7zM325.3 395.1c-11.9 3.2-24.4 4.9-37.3 4.9-79.5 0-144-64.5-144-144 0-12.9 1.7-25.4 4.9-37.3L69.4 139.2c-32.6 36.8-55 75.8-66.9 104.5-3.3 7.9-3.3 16.7 0 24.6 14.9 35.7 46.2 87.7 93 131.1 47.1 43.7 111.8 80.6 192.6 80.6 37.3 0 71.2-7.9 101.5-20.6l-64.2-64.2z"/>
  </symbol>

  <!-- heart-crack -->
  <symbol id="heart-crack" viewBox="0 0 512 512">
    <path d="M133.1 32c17.3 0 34.2 3.4 49.9 9.7l54.8 85.2-75.4 75.4c-1.5 1.5-2.4 3.6-2.3 5.8s1 4.2 2.6 5.7l112 104c2.9 2.7 7.4 2.9 10.5 .3s3.8-7 1.7-10.4l-60.4-98.1 90.7-75.6c2.6-2.1 3.5-5.7 2.4-8.8L296.4 60.6C319.6 42.3 348.6 32 378.9 32 452.4 32 512 91.6 512 165.1l0 2.6c0 112.2-139.9 242.5-212.9 298.2-12.4 9.4-27.6 14.1-43.1 14.1s-30.8-4.6-43.1-14.1C139.9 410.2 0 279.9 0 167.7l0-2.6C0 91.6 59.6 32 133.1 32z"/>
  </symbol>

  <!-- map-location -->
  <symbol id="map-location" viewBox="0 0 640 512">
    <path d="M576 48c0-11.1-5.7-21.4-15.2-27.2s-21.2-6.4-31.1-1.4L413.5 77.5 234.1 17.6c-8.1-2.7-16.8-2.1-24.4 1.7l-128 64C70.8 88.8 64 99.9 64 112l0 352c0 11.1 5.7 21.4 15.2 27.2s21.2 6.4 31.1 1.4l116.1-58.1 173.3 57.8c-4.3-6.4-8.5-13.1-12.6-19.9-11-18.3-21.9-39.3-30-61.8l-101.2-33.7 0-284.5 128 42.7 0 99.3c31-35.8 77-58.4 128-58.4 22.6 0 44.2 4.4 64 12.5L576 48zM392 341.9c0 68.9 64.1 150.4 98.6 189.3 11.6 13 31.3 13 42.9 0 34.5-38.9 98.6-120.4 98.6-189.3 0-65.1-53.7-117.9-120-117.9S392 276.8 392 341.9z"/>
  </symbol>

  <!-- globe -->
  <symbol id="globe" viewBox="0 0 512 512">
    <path d="M351.9 280l-190.9 0c2.9 64.5 17.2 123.9 37.5 167.4 11.4 24.5 23.7 41.8 35.1 52.4 11.2 10.5 18.9 12.2 22.9 12.2s11.7-1.7 22.9-12.2c11.4-10.6 23.7-28 35.1-52.4 20.3-43.5 34.6-102.9 37.5-167.4zM160.9 232l190.9 0C349 167.5 334.7 108.1 314.4 64.6 303 40.2 290.7 22.8 279.3 12.2 268.1 1.7 260.4 0 256.4 0s-11.7 1.7-22.9 12.2c-11.4 10.6-23.7 28-35.1 52.4-20.3 43.5-34.6 102.9-37.5 167.4zm-48 0C116.4 146.4 138.5 66.9 170.8 14.7 78.7 47.3 10.9 131.2 1.5 232l111.4 0zM1.5 280c9.4 100.8 77.2 184.7 169.3 217.3-32.3-52.2-54.4-131.7-57.9-217.3L1.5 280zm398.4 0c-3.5 85.6-25.6 165.1-57.9 217.3 92.1-32.7 159.9-116.5 169.3-217.3l-111.4 0zm111.4-48C501.9 131.2 434.1 47.3 342 14.7 374.3 66.9 396.4 146.4 399.9 232l111.4 0z"/>
  </symbol>

  <!-- podcast -->
  <symbol id="podcast" viewBox="0 0 448 512">
    <path d="M336 359.8c39.1-32.3 64-81.1 64-135.8 0-97.2-78.8-176-176-176S48 126.8 48 224C48 278.7 72.9 327.5 112 359.8 112.4 377.4 115.2 400.2 118.4 421.6 48 383.9 0 309.5 0 224 0 100.3 100.3 0 224 0S448 100.3 448 224c0 85.6-48 159.9-118.5 197.6 3.3-21.4 6-44.2 6.4-61.8zm-14-53.4c-8.3-12.6-19.2-21.6-30.4-27.8-2.1-1.1-4.2-2.2-6.3-3.2 11.7-13.9 18.8-31.9 18.8-51.5 0-44.2-35.8-80-80-80s-80 35.8-80 80c0 19.6 7.1 37.6 18.8 51.5-2.1 1-4.2 2-6.3 3.2-11.2 6.2-22.1 15.2-30.4 27.8-18.8-22.3-30.1-51-30.1-82.4 0-70.7 57.3-128 128-128s128 57.3 128 128c0 31.4-11.3 60.2-30.1 82.4zM224 312c32.9 0 64 8.6 64 43.8 0 33-12.9 104.1-20.6 132.9-5.1 19-24.5 23.4-43.4 23.4s-38.2-4.4-43.4-23.4c-7.8-28.5-20.6-99.7-20.6-132.8 0-35.1 31.1-43.8 64-43.8zm0-128a40 40 0 1 1 0 80 40 40 0 1 1 0-80z"/>
  </symbol>

</svg>

